<svg xmlns="http://www.w3.org/2000/svg" viewBox="0 110 612 555"><g fill="#231F20"><path d="M72.6 385.8c8.7 0 19.2-4.4 29.7-3.5 1.7-4.4 1.7-8.7 3.5-13.1 1.7-5.2 4.4-10.5 6.1-15.7.9-1.7.9-4.4 1.7-6.1.9-1.7.9-2.6 1.7-4.4 0-.9.9-1.7.9-2.6v-2.6c0-.9.9-1.7.9-2.6.9-1.7.9-4.4 1.7-6.1.9-3.5 2.6-6.1 3.5-9.6.9-3.5 1.7-6.1 2.6-9.6s2.6-5.2 3.5-8.7c1.7-3.5 1.7-7.9 3.5-11.4 1.7-4.4 2.6-7.9 3.5-12.2 1.7-7 5.2-14 8.7-21 1.7-4.4 4.4-8.7 5.2-14 0-1.7.9-3.5.9-5.2.9-1.7 1.7-5.2 3.5-5.2 2.6-.9 7 5.2 8.7 7 .9.9 1.7 2.6 2.6 3.5.9.9 1.7 2.6 1.7 3.5v4.4c-.9 2.6-1.7 6.1-2.6 8.7-.9 1.7-.9 2.6-1.7 4.4-1.7 5.2-3.5 9.6-5.2 14-2.6 7-5.2 13.1-7.9 20.1-1.7 4.4-2.6 9.6-4.4 14-1.7 5.2-3.5 10.5-5.2 16.6-.9 4.4-2.6 7.9-4.4 12.2s-2.6 7.9-4.4 12.2c-1.7 7-5.2 14-7 21 0 1.7-.9 2.6-.9 4.4 0 .9-.9 2.6-.9 3.5 4.4.9 9.6.9 14 .9 1.7-3.5 2.6-6.1 4.4-9.6 2.6-4.4 5.2-10.5 9.6-15.7.9-.9 1.7-.9 2.6-1.7 3.5-4.4 7-7.9 13.1-10.5.9-.9 4.4-1.7 5.2-1.7 3.5 0 5.2 4.4 7.9 6.1 1.7.9 3.5 1.7 5.2 3.5 1.7.9 3.5 2.6 5.2 4.4.9 1.7 2.6 4.4 2.6 6.1 0 2.6-.9 5.2-1.7 8.7-.9 5.2-.9 8.7-3.5 12.2-1.7 1.7-4.4 2.6-6.1 4.4-.9.9-1.7 1.7-3.5 1.7-1.7.9-2.6 1.7-4.4 1.7-1.7.9-3.5.9-5.2 1.7-3.5.9-7 2.6-10.5 3.5-.9 0-6.1.9-6.1.9-1.7 7.9 0 17.5 4.4 22.7 2.6.9 7-.9 9.6-2.6 3.5-1.7 7-5.2 9.6-7.9 7-6.1 12.2-13.1 17.5-21 .9-1.7 1.7-4.4 3.5-6.1.9-.9.9-.9.9-1.7.9-3.5 2.6-6.1 4.4-8.7 1.7-2.6 3.5-7 3.5-9.6.9-4.4-1.7-9.6 0-14 .9-1.7 1.7-2.6 2.6-4.4.9-.9.9-1.7.9-2.6 0-2.6 3.5-2.6 5.2-1.7 1.7.9 2.6 4.4 4.4 5.2l4.4 4.4c.9 2.6 0 5.2 1.7 7 4.4-.9 7-3.5 10.5-2.6 1.7 0 3.5 1.7 6.1 2.6 1.7.9 4.4.9 6.1 2.6.9.9 1.7 2.6 2.6 4.4.9 2.6 1.7 6.1 1.7 9.6s-2.6 5.2-3.5 7c-8.7 7.9-15.7 16.6-19.2 28.9 0 .9-.9 3.5-.9 4.4.9.9 3.5-1.7 4.4-2.6l1.7-1.7c1.7-1.7 3.5-3.5 6.1-5.2 3.5-3.5 7.9-7 10.5-11.4-2.6-6.1.9-11.4 6.1-7 3.5-3.5 5.2-7.9 8.7-12.2.9-1.7 2.6-2.6 3.5-4.4s1.7-3.5 2.6-5.2c.9-1.7 2.6-3.5 3.5-6.1.9-1.7 2.6-3.5 3.5-6.1.9-.9.9-1.7 1.7-3.5 0-.9.9-1.7.9-2.6v-10.5c0-.9 1.7-.9 2.6-.9v-1.7l.9-.9c.9-.9 1.7-.9 2.6-.9 1.7 0 3.5.9 5.2 2.6.9.9.9 2.6.9 3.5 2.6 2.6 6.1 6.1 6.1 10.5 0 1.7-.9 3.5-1.7 4.4-.9 6.1 0 14 1.7 20.1 1.7 6.1 2.6 14 2.6 21 1.7-.9 2.6-2.6 3.5-4.4 1.7-3.5 4.4-7 6.1-10.5 1.7-4.4 3.5-7.9 6.1-11.4.9-1.7 2.6-3.5 4.4-5.2 2.6-4.4 5.2-7.9 7.9-11.4 1.7-1.7 4.4-4.4 7-6.1.9-.9 2.6-1.7 3.5-2.6.9-.9 1.7-2.6 3.5-2.6.9-.9 2.6-.9 3.5-.9s2.6-.9 3.5-.9c2.6 0 5.2-.9 7 .9 1.7.9 4.4 2.6 6.1 4.4.9 1.7 2.6 4.4 4.4 5.2h1.7c.9 0 2.6-.9 3.5 0 .9.9 1.7 1.7 1.7 3.5 0 2.6 0 5.2-.9 7 0 .9-.9 1.7-.9 2.6 0 .9-.9 1.7-1.7 2.6-.9.9-1.7 1.7-1.7 3.5-.9 1.7-.9 2.6-1.7 4.4-.9 1.7-1.7 2.6-2.6 4.4-.9 2.6-1.7 4.4-6.1 2.6-.9-.9-2.6-1.7-3.5-2.6-.9-.9-1.7-.9-2.6-2.6-2.6 1.7-2.6.9-2.6-.9 0-1.7-.9-2.6-.9-3.5 0-1.7.9-2.6.9-3.5 0-.9.9-1.7 0-2.6-.9-.9-2.6 0-3.5 0-2.6.9-3.5 3.5-5.2 5.2-2.6 2.6-5.2 5.2-7 8.7-.9 1.7-1.7 3.5-2.6 5.2s-2.6 3.5-2.6 5.2c-1.7 6.1-2.6 10.5 1.7 14.9.9.9 1.7.9 2.6.9.9 0 .9.9 1.7.9 1.7.9 3.5 1.7 5.2 1.7 5.2-.9 13.1-4.4 17.5-7 1.7-.9 3.5-3.5 6.1-4.4 1.7-1.7 4.4-3.5 5.2-5.2 0-.9.9-1.7.9-2.6 1.7-3.5 3.5-7 4.4-11.4.9-2.6 1.7-5.2 2.6-7 .9-.9.9-2.6.9-3.5.9-2.6 2.6-4.4 3.5-7 1.7-2.6 2.6-6.1 4.4-8.7.9-1.7 1.7-3.5 2.6-5.2 1.7-3.5 2.6-6.1 3.5-9.6.9-1.7.9-3.5 1.7-4.4.9-1.7 1.7-2.6 1.7-4.4 0-1.7.9-2.6.9-4.4.9-1.7 1.7-2.6 1.7-4.4 1.7-3.5 3.5-7.9 5.2-11.4.9-2.6 1.7-5.2 3.5-7.9 1.7-3.5 3.5-7.9 5.2-12.2 1.7-2.6 2.6-4.4 3.5-7.9.9-2.6 2.6-4.4 4.4-7 1.7-2.6 1.7-6.1 3.5-9.6 1.7-2.6 2.6-5.2 4.4-8.7.9-2.6 1.7-5.2 3.5-8.7.9-1.7 2.6-6.1 4.4-7 4.4-1.7 8.7 5.2 10.5 8.7.9.9 1.7 2.6 1.7 4.4 0 2.6 0 5.2-.9 7.9-1.7 7.9-5.2 14-7.9 20.1-7 12.2-14 24.5-21 36.7-.9 1.7-2.6 3.5-3.5 5.2-.9 1.7-.9 3.5-1.7 4.4-.9 1.7-1.7 2.6-2.6 4.4-.9 1.7-.9 2.6-1.7 4.4 0 .9-.9 2.6-.9 3.5-.9.9-.9 2.6-1.7 3.5 2.6-.9 4.4-1.7 6.1-3.5.9-.9 1.7-1.7 2.6-1.7 1.7-.9 4.4-1.7 6.1-2.6 1.7-.9 4.4-.9 7-.9 2.6.9 5.2 2.6 7 4.4 1.7.9 3.5 2.6 4.4 3.5.9 1.7 2.6 3.5 3.5 5.2.9 4.4-.9 7-1.7 10.5v5.2c0 1.7-.9 2.6-1.7 4.4-1.7 2.6-3.5 5.2-4.4 7.9-.9 1.7-.9 3.5-1.7 4.4-.9 1.7-2.6 3.5-3.5 5.2-.9 1.7-1.7 3.5-1.7 5.2-.9 1.7-1.7 4.4-2.6 6.1s-2.6 6.1 0 7c1.7.9 6.1-1.7 7.9-3.5 1.7-1.7 3.5-2.6 5.2-4.4 1.7-1.7 3.5-2.6 5.2-4.4 1.7-1.7 3.5-3.5 5.2-6.1.9-3.5.9-8.7 1.7-12.2s2.6-7 4.4-10.5c4.4-8.7 9.6-14.9 17.5-21 1.7-1.7 2.6-2.6 4.4-3.5 4.4-1.7 10.5 0 13.1 2.6 1.7 1.7 4.4 3.5 6.1 5.2 2.6 2.6 7 4.4 7.9 8.7.9 1.7 0 3.5 0 6.1-.9 2.6-.9 4.4-1.7 7-.9 2.6-1.7 5.2-2.6 7l-3.5 3.5c-1.7 1.7-4.4 3.5-7 6.1-2.6 2.6-5.2 4.4-8.7 7-1.7.9-4.4 4.4-7.9 3.5-2.6-.9-4.4-3.5-7-4.4-1.7 5.2 1.7 10.5 4.4 14.9.9.9 1.7 1.7 2.6 1.7 3.5.9 6.1-.9 8.7-2.6 4.4-2.6 6.1-6.1 9.6-8.7 1.7-1.7 4.4-2.6 5.2-4.4.9-.9 2.6-2.6 3.5-4.4 1.7-2.6 4.4-6.1 7-7.9.9-.9 2.6-1.7 4.4-3.5.9-.9 2.6-2.6 3.5-4.4 3.5-4.4 4.4-7 5.2-13.1.9-3.5.9-7.9.9-11.4.9-3.5.9-7 1.7-10.5.9-2.6.9-4.4.9-7 1.7-10.5 6.1-20.1 9.6-30.6.9-2.6.9-5.2 1.7-7.9.9-2.6 2.6-4.4 2.6-7 .9-1.7.9-4.4 1.7-6.1.9-1.7 2.6-3.5 3.5-6.1.9-1.7 1.7-3.5 2.6-6.1 3.5-7.9 7-15.7 11.4-23.6 1.7-3.5 4.4-7.9 6.1-11.4 1.7-2.6 1.7-7 5.2-7.9 2.6-.9 7.9 1.7 10.5 3.5 3.5 2.6.9 9.6 0 14-.9 3.5-1.7 6.1-1.7 9.6 0 1.7 0 2.6-.9 4.4-.9 3.5-1.7 7-2.6 10.5-.9 3.5-.9 7.9-1.7 11.4 0 1.7-1.7 3.5-1.7 6.1s0 5.2-.9 7c-1.7 3.5-2.6 6.1-3.5 9.6-.9 3.5-1.7 6.1-3.5 9.6-1.7 2.6-2.6 5.2-3.5 7.9-.9 2.6-2.6 5.2-3.5 8.7-1.7 4.4-3.5 8.7-6.1 13.1-3.5 7-7.9 14-12.2 21-.9 1.7-1.7 2.6-2.6 4.4-.9 1.7-2.6 2.6-2.6 4.4-.9 3.5-.9 9.6 0 14.9.9 3.5.9 7 .9 10.5 0 1.7 0 3.5.9 4.4 0 .9.9 2.6 1.7 3.5 1.7.9 4.4 0 6.1 0 1.7 0 3.5-.9 5.2-1.7 1.7-.9 2.6-1.7 4.4-2.6 1.7-.9 2.6-1.7 4.4-2.6 3.5-.9 6.1-4.4 8.7-7 1.7-1.7 4.4-6.1 7-7 3.5-.9 5.2 3.5 3.5 7-.9 2.6-2.6 4.4-3.5 7-1.7 2.6-3.5 5.2-5.2 7.9-2.6 2.6-5.2 4.4-8.7 7-.9.9-.9 1.7-1.7 1.7-.9.9-1.7.9-2.6 1.7-1.7.9-3.5 1.7-5.2 3.5-1.7.9-3.5 1.7-6.1 2.6-2.6.9-6.1.9-8.7.9-1.7 0-4.4 0-6.1-.9-1.7-.9-3.5-2.6-5.2-3.5-2.6-.9-4.4-4.4-4.4-7-.9-3.5-1.7-7-1.7-10.5V387c-9.6 7-21.9 21-32.3 28-2.6 1.7-7.9 1.7-11.4.9-2.6-.9-5.2-2.6-7.9-3.5-1.7-.9-3.5-1.7-5.2-3.5-1.7-1.7-3.5-4.4-5.2-7-.9-.9-1.7-2.6-3.5-3.5l-2.6 1.7-2.6 2.6c-.9.9-1.7 1.7-2.6 1.7-1.7 1.7-3.5 2.6-5.2 3.5-3.5 2.6-8.7 4.4-13.1 4.4h-4.4c-2.6 0-5.2-.9-7.9-2.6-1.7-.9-4.4-1.7-6.1-4.4-.9-.9-.9-2.6-.9-4.4s.9-5.2 1.7-7c.9-2.6.9-5.2 1.7-7 1.7-3.5 3.5-7.9 5.2-11.4.9-2.6 2.6-5.2 3.5-7.9s.9-5.2 1.7-7.9c0-1.7.9-5.2-.9-6.1-2.6-2.6-8.7-.9-11.4.9-1.7.9-3.5 1.7-4.4 2.6-.9.9-2.6.9-3.5 2.6-.9.9-.9 1.7-1.7 2.6l-3.5 3.5c-.9.9-.9 2.6-1.7 3.5 0 .9-.9 1.7-.9 3.5-.9 1.7-1.7 4.4-2.6 6.1-.9 2.6-2.6 5.2-3.5 9.6-1.7 5.2-4.4 11.4-5.2 17.5-.9 2.6-.9 6.1-1.7 8.7 0 .9-1.7 3.5-2.6 3.5s-3.5-.9-5.2-1.7c-3.5-1.7-7-1.7-7.9-6.1-2.6.9-5.2 2.6-7 3.5-.9.9-1.7 1.7-2.6 1.7-.9.9-2.6.9-3.5.9-.9 0-.9 0-1.7.9-.9.9-1.7.9-3.5.9h-4.4c-2.6 0-6.1-.9-8.7-.9-1.7 0-3.5 0-4.4-.9-1.7-.9-2.6-1.7-3.5-2.6-2.6-1.7-5.2-4.4-7-7-1.7-2.6-2.6-6.1-3.5-9.6-2.6 1.7-3.5 3.5-5.2 6.1-1.7 1.7-2.6 4.4-4.4 7-3.5 4.4-6.1 8.7-10.5 12.2-3.5 2.6-10.5 4.4-15.7 4.4-10.5-1.7-16.6-9.6-21.9-17.5-3.5 3.5-7.9 7.9-13.1 12.2-3.5 2.6-4.4 4.4-8.7 6.1-2.6.9-5.2 1.7-7.9 1.7-1.7 0-2.6 0-4.4-.9-.9 0-2.6 0-3.5-.9-.9-.9-1.7-1.7-2.6-3.5-.9-2.6-1.7-6.1-2.6-8.7v-5.2c0-1.7 0-4.4.9-6.1.9-1.7 1.7-4.4 1.7-6.1.9-2.6 1.7-5.2 3.5-7.9.9-1.7 4.4-6.1 3.5-7 0-3.5-6.1-2.6-7.9-4.4-2.6 2.6-4.4 6.1-6.1 8.7-.9 1.7-1.7 2.6-2.6 4.4-.9 1.7-1.7 3.5-2.6 5.2-.9 1.7-2.6 2.6-3.5 4.4-.9 1.7-1.7 3.5-2.6 5.2-2.6 3.5-3.5 7-6.1 9.6-1.7 2.6-4.4 6.1-7 8.7-2.6 2.6-6.1 6.1-9.6 7.9-1.7.9-4.4.9-6.1.9-2.6 0-5.2.9-7 .9-2.6.9-5.2.9-7.9.9-1.7 0-3.5-1.7-6.1-1.7-1.7-.9-2.6-.9-4.4-1.7-1.7-.9-2.6-2.6-3.5-3.5l-2.6-2.6c-3.5-6.1-4.4-14.9-4.4-23.6-5.2-.9-11.4-.9-16.6-1.7-.9 0-4.4 12.2-4.4 14-1.7 5.2-2.6 9.6-3.5 14.9 0 1.7-.9 4.4-.9 6.1 0 .9-.9 1.7-.9 2.6-2.6 7.9-5.2 14.9-7.9 22.7 0 1.7-.9 2.6-1.7 3.5-.9 1.7-2.6.9-4.4 1.7-.9 0-.9.9-1.7.9s-1.7-.9-1.7-1.7c-.9-1.7 0-4.4 0-6.1 0-2.6-.9-6.1-.9-9.6 0-2.6.9-5.2.9-7 0-3.5.9-7 1.7-10.5.9-5.2.9-11.4 2.6-16.6.9-5.2 2.6-10.5 3.5-14.9-10.5.9-21 3.5-29.7 7-.9.9-.9 2.6-1.7 4.4-.9 1.7-1.7 4.4-2.6 6.1-.9 6.1-2.6 12.2-3.5 18.4 0 3.5-.9 6.1-1.7 9.6-1.7 7.9-3.5 15.7-5.2 24.5 0 .9 0 1.7-.9 2.6s-1.7.9-2.6 1.7c-.9.9-.9 3.5-2.6 3.5 4.4-1.7.9-3.5.9-3.5-.9-.9-.9-2.6-.9-3.5-.9-2.6-.9-5.2 0-7.9 0-4.4.9-7.9 1.7-12.2 0-2.6.9-4.4.9-7 1.7-10.5 1.7-21 4.4-30.6-2.6.9-7 2.6-10.5 1.7-1.7-.9-5.2-3.5-6.1-6.1-.9-1.7-1.7-4.4-1.7-7 0-.9-.9-2.6-.9-3.5s.9-.9 1.7-.9c1.7.9 2.6 0 4.4-.9 1.7 0 3.5-.9 5.2-.9 3.5-.9 7.9-2.6 11.4-4.4.9-2.6.9-6.1 1.7-9.6 1.7-7 2.6-13.1 4.4-20.1.9-2.6.9-6.1 1.7-8.7v-5.2c0-.9.9-2.6.9-3.5.9-2.6 1.7-5.2 1.7-7 .9-6.1 1.7-13.1 3.5-20.1 1.7-6.1 4.4-12.2 5.2-18.4 0-2.6 0-5.2.9-7.9 0-1.7 1.7-2.6 1.7-3.5v-4.4c2.6-11.4 7-22.7 9.6-34.1 0-1.7.9-3.5.9-4.4 0-1.7 0-3.5.9-4.4.9-1.7 1.7-3.5 1.7-4.4.9-3.5 1.7-7 1.7-10.5.9-1.7.9-3.5 1.7-5.2.9-1.7 4.4 0 5.2 0s1.7.9 2.6.9c1.7.9 2.6.9 3.5 1.7l2.6 2.6c1.7 1.7 3.5 3.5 4.4 6.1.9 1.7.9 3.5.9 5.2s-1.7 3.5-1.7 5.2c-1.7 4.4-2.6 8.7-3.5 13.1-4.4 11.4-7.9 24.5-12.2 36.7-.9 1.7-1.7 4.4-1.7 6.1-1.7 5.2-1.7 11.4-3.5 16.6-.9 2.6-1.7 4.4-2.6 7.9-.9 2.6-1.7 5.2-1.7 7.9-2.6 13.1-5.2 25.4-8.7 38.5.8 3.7-2.7 9.8-3.5 16.8zm492.2-121.5c-3.5 7.9-7 14.9-9.6 24.5-.9.9-.9 2.6-.9 3.5 0 3.5-10.5 28.9-9.6 32.3 2.6-3.5 11.4-29.7 13.1-33.2v-.9c3.5-7.9 6.1-16.6 7-26.2zm-391.7 97c-5.2 5.2-9.6 10.5-14 15.7-.9.9-2.6 2.6-2.6 4.4 10.5-1.7 17.5-9.6 16.6-20.1.9 0 .9 0 0 0zm96.2 47.2c1.7.9 3.5 2.6 4.4 2.6s3.5-2.6 4.4-3.5c2.6-2.6 5.2-6.1 5.2-8.7 0-8.7-2.6-19.2-2.6-28h-.9c-7.9 8.7-11.4 20.1-18.4 29.7 1.7 1.7 2.6 4.4 4.4 6.1 1.7.1 2.6.9 3.5 1.8zm201.1-35c3.5-.9 17.5-14 16.6-22.7-6.2-1.7-14.9 19.3-16.6 22.7zm-186.3-222c0 4.4 1.7 8.7 1.7 14 2.6 0 8.7-2.6 7.9 1.7 0 2.6-5.2 1.7-7.9 2.6 0 5.2.9 10.5 1.7 15.7 2.6 0 9.6-2.6 10.5 0 .9 3.5-12.2 3.5-14 2.6-1.7-11.4-2.6-26.2-2.6-38.5 1.7-.9 6.1-.9 8.7-1.7 1.7 0 3.5-.9 3.5.9 1 2.7-6.8 1.8-9.5 2.7zm28-.9c-1.7-2.6-6.1-.9-7 1.7-.9 1.7-.9 4.4 0 6.1.9 2.6 4.4 5.2 6.1 8.7 3.5 4.4 6.1 9.6 3.5 16.6-2.6 3.5-9.6 5.2-13.1 0-.9-1.7-3.5-12.2.9-12.2 3.5 0 0 11.4 5.2 11.4 2.6 0 5.2-1.7 5.2-5.2-.9-8.7-10.5-12.2-11.4-21.9 0-1.7 0-3.5 1.7-5.2 3.5-6.1 12.2-4.4 12.2 3.5 0 .9 0 3.5-1.7 3.5-.9 0-.9-1.7-.9-2.6.2-1.8.2-2.6-.7-4.4zm26.2.9c-1.7 1.7-5.2 0-7 0 0 9.6 0 19.2-.9 28.9v3.5c0 1.7 0 3.5-2.6 3.5-1.7-1.7-.9-4.4-.9-6.1.9-9.6.9-20.1 1.7-29.7 0 .9-5.2 0-6.1 0-.9 0-2.6-.9-1.7-1.7 0-.9 2.6-.9 3.5-.9h7c2.7-1 7.9-1 7 2.5z"/><path d="M361.9 188.2c.9.9 1.7 2.6 2.6 3.5l2.6 2.6c1.7.9 3.5.9 4.4 1.7 3.5.9 7 2.6 10.5 2.6 1.7.9 4.4.9 6.1.9 7.9.9 15.7.9 23.6 1.7 7 .9 14 2.6 21 4.4 8.7 2.6 19.2 6.1 26.2 12.2.9.9 6.1 6.1 2.6 7.9-2.6.9-3.5-3.5-4.4-4.4-2.6-2.6-6.1-3.5-8.7-5.2-3.5-1.7-7-2.6-10.5-4.4-7.9-2.6-15.7-4.4-23.6-6.1-13.1-1.7-27.1-1.7-38.5-5.2-5.2-1.7-11.4-2.6-14-7.9-.9-.9-.9-1.7-1.7-2.6 0-.9 0-1.7-.9-1.7h-1.7c-.9 0-.9-.9-1.7-.9-2.6-1.7-4.4-4.4-4.4-7-.9-5.2 1.7-14.9 2.6-20.1.9-4.4.9-8.7 3.5-10.5 1.7-1.7 7.9-1.7 9.6-.9s3.5 4.4 3.5 6.1c0 2.6-.9 6.1-.9 9.6-.9 5.2-1.7 9.6-2.6 14-2.5 5.3-3.4 8-5.2 9.7zm-7.8-15.7c-.9 5.2-.9 12.2 3.5 12.2 4.4.9 4.4-2.6 4.4-6.1.9-5.2 2.6-10.5 2.6-16.6 0-1.7.9-3.5.9-5.2 0-1.7-1.7-4.4-3.5-4.4-1.7-.9-4.4-.9-5.2 1.7-.9 1.7 0 3.5-.9 5.2 0 1.7-.9 4.4-.9 6.1 0 2.7-.9 4.4-.9 7.1zm-77.8 15.7c-3.5 2.6-5.2-.9-7-4.4-2.6-5.2-6.1-13.1-7.9-17.5 0 5.2.9 11.4 1.7 16.6 0 1.7 1.7 6.1-1.7 6.1-2.6 0-2.6-8.7-3.5-11.4-.9-7-.9-13.1-2.6-20.1V154c0-1.7.9-3.5 2.6-1.7 1.7.9 2.6 2.6 3.5 4.4 2.6 7 5.2 14 8.7 21 0-4.4-.9-8.7-.9-14.9 0-3.5-2.6-13.1 1.7-12.2 1.7.9 1.7 2.6 1.7 5.2 1 9.7 3.7 21 3.7 32.4z"/><path d="M377.7 152.4c.9 0 .9 1.7 1.7 2.6 0 1.7 0 3.5-.9 4.4-.9 5.2-1.7 11.4-2.6 17.5 0 2.6-.9 5.2-.9 7 .9 2.6 3.5 4.4 6.1 4.4 4.4-.9 4.4-7 5.2-12.2.9-5.2 1.7-8.7 2.6-14.9 0-2.6.9-6.1 2.6-6.1 1.7 0 .9 4.4.9 7.9-.9 6.1-1.7 10.5-2.6 15.7-.9 6.1-1.7 11.4-7 13.1-6.1 1.7-12.2-2.6-11.4-9.6 0-3.5 1.7-7.9 2.6-11.4.9-4.4.9-7.9 1.7-12.2.2-1.9 1.1-5.4 2-6.2zm-122.4 37.5c-3.5 1.7-3.5-5.2-4.4-7.9-1.7-7-1.7-13.1-3.5-20.1 0-1.7-.9-3.5-.9-5.2 0-.9-.9-3.5.9-4.4 1.7-1.7 2.6 2.6 2.6 3.5 0 .9 0 2.6.9 3.5.9 4.4 1.7 7 1.7 11.4.1 7.9 3.6 14.9 2.7 19.2zm-23.6-29.7c1.7 4.4 2.6 8.7 3.5 13.1 1.7 0 8.7-4.4 10.5-.9.9 3.5-7 3.5-8.7 4.4 0 3.5.9 6.1 2.6 9.6.9 2.6 2.6 7.9-.9 7.9-2.6 0-3.5-7-4.4-9.6 0-1.7 0-3.5-.9-4.4-1.7-7-5.2-16.6-5.2-23.6 2.6 0 7-2.6 10.5-2.6 1.7 0 3.5 0 2.6 2.6-.9 2.6-7.9 1.8-9.6 3.5zm173.1 24.5c-1.7-.9-3.5-1.7-5.2-2.6-.9 1.7-1.7 3.5-3.5 6.1-.9.9-.9 1.7-1.7 2.6 0 .9-.9.9-.9.9-2.6.9-2.6-1.7-1.7-3.5s1.7-3.5 2.6-5.2c4.4-7.9 7-17.5 11.4-25.4 2.6-1.7 1.7 2.6 1.7 5.2 0 1.7 0 3.5.9 6.1 0 7-.9 14.9-.9 20.1 0 2.6 0 5.2-1.7 6.1-3.6 1-1-7.8-1-10.4zm-4.4-5.2c1.7.9 2.6 1.7 4.4 1.7.9-3.5.9-9.6 0-14-.9 3.5-2.6 7.9-4.4 12.3zm21.9-18.4c-.9 11.4-5.2 21.9-7 32.3 1.7 1.7 9.6 1.7 8.7 5.2 0 3.5-5.2 0-6.1 0-2.6-.9-6.1-.9-7-2.6-.9-1.7.9-6.1 1.7-8.7 1.7-7.9 5.2-19.2 7-25.4.9.1 1.8-1.7 2.7-.8zm-221.2 5.2c.9 4.4 2.6 8.7 3.5 13.1l5.2-1.7c.9 0 1.7-.9 2.6-.9 1.7 0 2.6 1.7.9 3.5-1.7.9-3.5 1.7-5.2 1.7l-2.6.9c.9 4.4 3.5 8.7 4.4 13.1 4.4-.9 7.9-3.5 12.2-2.6 1.7 2.6-2.6 3.5-5.2 4.4-3.5.9-7.9 3.5-9.6 0-.9-1.7-1.7-5.2-2.6-7.9-2.6-7.9-6.1-17.5-7-26.2 2.6-.9 8.7-4.4 11.4-3.5.9 0 1.7.9 1.7.9.8 4.4-8 4.4-9.7 5.2zm237.8-.8c1.7.9.9 3.5 0 4.4-1.7 7.9-3.5 15.7-6.1 23.6-.9 2.6-1.7 9.6-5.2 7.9-1.7-2.6.9-5.2 1.7-8.7 1.7-5.2 3.5-12.2 5.2-18.4.9-3.6 1.8-7.1 4.4-8.8zm14.8 7.8c-.9 6.1-4.4 11.4-6.1 16.6-.9 2.6-.9 5.2-1.7 7.9-.9 1.7-1.7 7-3.5 7-3.5 0-.9-6.1 0-7.9 2.6-8.7 6.1-16.6 8.7-24.5 0 0-3.5-1.7-4.4-1.7-.9 0-.9-.9-1.7-.9 0 0-.9-2.6 0-2.6 2.6 0 5.2.9 9.6 2.6 2.6.9 6.1 1.7 6.1 3.5.9 4.4-5.2.9-7 0zm-255.2 21.9c.9.9.9 2.6 1.7 3.5.9 1.7 1.7 4.4-.9 4.4-2.6.9-2.6-3.5-3.5-6.1-.9-2.6-3.5-7-3.5-9.6-2.6.9-4.4 1.7-7 1.7l2.6 7.9c.9 1.7.9 2.6 1.7 4.4 0 1.7 1.7 4.4-.9 4.4-1.7 0-2.6-2.6-2.6-4.4-.9-3.5-3.5-7.9-4.4-12.2-1.7-4.4-2.6-8.7-3.5-13.1 0-.9-1.7-3.5-.9-4.4.9-2.6 3.5 1.7 3.5 2.6.9.9.9 2.6.9 3.5.9 2.6 2.6 5.2 2.6 7.9 2.6 0 5.2-1.7 7.9-2.6-.9-3.5-1.7-5.2-2.6-9.6-.9-2.6-2.6-7 0-7 1.7 0 2.6 3.5 2.6 4.4.9 1.7.9 4.4 1.7 6.1.9 2.6 1.7 6.1 2.6 8.7.9 1.7.9 2.6 1.7 4.4-.6 3.3-.6 4.2.3 5.1zm265.7-21c.9 0 .9 0 0 0 .9 1.7 0 4.4.9 5.2 0 3.5 0 6.1.9 9.6 1.7-1.7 5.2-3.5 7.9-5.2.9-.9 1.7-2.6 2.6-3.5.9-.9 2.6-1.7 3.5-.9.9 1.7-1.7 4.4-2.6 5.2-3.5 3.5-8.7 7-12.2 11.4-.9 3.5-2.6 8.7-4.4 13.1-.9 1.7-.9 5.2-4.4 3.5 0-4.4 2.6-9.6 4.4-14 .9-3.5 1.7-6.1 1.7-12.2 0-1.7-.9-4.4-.9-6.1 0-1.7 0-4.4.9-5.2.9-1.8 1.7-1.8 1.7-.9zm-298.1 5.3c2.6 6.1 6.1 15.7 9.6 23.6.9 2.6 4.4 7.9.9 8.7-2.6.9-3.5-4.4-4.4-7-3.5-7.9-6.1-15.7-8.7-23.6-2.6.9-4.4 2.6-7 1.7-.9-2.6 3.5-3.5 6.1-5.2 2.6-.9 6.1-3.5 7.9-3.5.9 0 2.6 0 2.6 1.7-.9 1.8-5.2 1.8-7 3.6zM290.3 280H306c0 1.7.9 3.5 0 5.2-.9.9-3.5 0-5.2 0v31.5c-.9.9-4.4.9-5.2 0v-32.3h-6.1c-.1 0-1-3.5.8-4.4zm32.3.9v36.7c-.9.9-3.5 0-5.2 0-.9-4.4 0-11.4 0-16.6-.9-.9-2.6 0-3.5 0 0 5.2.9 12.2 0 16.6-1.7 0-4.4.9-5.2-.9-.9-11.4 0-24.5.9-35.8 1.7-.9 3.5 0 5.2 0v14c.9.9 2.6 0 3.5 0 0-4.4-.9-10.5 0-14.9.8.9 2.6.9 4.3.9zm18.4.8c0 .9.9 3.5 0 4.4-1.7.9-4.4 0-6.1 0-.9 2.6 0 7 0 9.6h6.1c0 .9.9 3.5 0 4.4-.9.9-3.5 0-5.2.9-.9 3.5 0 7 0 10.5h6.1c0 .9.9 2.6 0 4.4-4.4.9-7.9.9-12.2 0 0-7.9-.9-15.7-.9-23.6 0-3.5-.9-7.9.9-11.4 1.6 0 7.8 0 11.3.8zm-13.2 161.8c4.4-.9 6.1 2.6 7 6.1.9 5.2 0 10.5 0 14.9v4.4c0 2.6.9 5.2-.9 7.9-1.7 1.7-4.4 3.5-7 3.5-1.7 0-5.2-.9-6.1-1.7-2.6-2.6-1.7-20.1-1.7-26.2 1.8-4.5 3.5-8 8.7-8.9zm2.7 6.1c0-.9-.9-.9-.9-.9-1.7-.9-2.6 0-3.5 1.7-.9 2.6 0 9.6 0 14v5.2c0 2.6 0 4.4.9 7 0 .9.9.9 1.7.9 2.6 0 2.6-1.7 2.6-3.5.9-1.7.9-4.4.9-7v-14.9c-1.7-1.6-1.7-2.5-1.7-2.5zm-15.8 8.8c-1.7 0-3.5 0-4.4-.9s-.9-2.6-.9-3.5c0-1.7.9-4.4-1.7-5.2-2.6-.9-3.5 2.6-3.5 4.4v13.1c0 3.5-.9 8.7 1.7 9.6 5.2 1.7 2.6-6.1 4.4-9.6h4.4c.9 4.4.9 11.4-1.7 13.1-3.5 3.5-11.4 1.7-13.1-1.7-.9-.9-.9-2.6-.9-4.4-.9-7.9.9-19.2.9-25.4 1.7-4.4 6.1-5.2 10.5-4.4.9 0 1.7.9 2.6 1.7.9.9 1.7 1.7 1.7 2.6v3.5c.9.1 0 7.1 0 7.1zm-120.6-2.7c-.9 0-3.5.9-3.5 0-.9-1.7.9-5.2-.9-6.1-5.2-2.6-5.2 4.4-2.6 7.9s7.9 7.9 7.9 14c0 4.4-.9 10.5-7 10.5-7 0-7-7.9-6.1-13.1.9 0 2.6-.9 4.4 0 .9 2.6-.9 7.9 2.6 7.9 1.7-.9 1.7-4.4 1.7-6.1 0-.9-.9-2.6-1.7-3.5-1.7-3.5-6.1-7-7-9.6-.9-3.5 0-8.7 1.7-10.5 1.7-1.7 7-2.6 10.5-1.7.9.7.9 6.8 0 10.3zm9.6-10.5c.9 3.5 0 7.9 0 13.1s-.9 10.5 0 14c0 2.6 1.7 6.1 5.2 4.4 1.7-4.4.9-9.6.9-15.7v-15.7c.9-.9 3.5-.9 4.4 0v19.2c0 4.4.9 9.6-.9 14-1.7 4.4-9.6 5.2-13.1 1.7-.9-1.7-1.7-5.2-2.6-8.7v-14c0-4.4-.9-11.4 1.7-12.2 1.8-.9 3.5-.9 4.4-.1zm69.9 0c1.7 3.5 2.6 7.9 4.4 11.4 1.7-3.5 3.5-7 4.4-11.4.9 0 3.5-.9 4.4 0 0 2.6-1.7 6.1-2.6 8.7-.9 2.6-3.5 6.1-3.5 8.7-.9 6.1 1.7 12.2 0 18.4h-4.4v-18.4c0-1.7-1.7-3.5-1.7-4.4-.9-1.7-.9-3.5-1.7-5.2-.9-2.6-2.6-4.4-1.7-7.9-1.1-.7.7.1 2.4.1zm84-.8h7c3.5 0 5.2.9 6.1 4.4.9 2.6.9 6.1.9 9.6 0 .9-.9 2.6-1.7 4.4 1.7.9.9 3.5 1.7 7 0 4.4 1.7 10.5-2.6 12.2-2.6.9-7.9 0-11.4 0-.9-12.3-.9-25.4 0-37.6 0 .8 0 0 0 0zm5.2 4.3v11.4h2.6c.9 0 1.7-.9 1.7-2.6 0-2.6.9-6.1-.9-7.9-1.6 0-2.5-.9-3.4-.9zm4.4 16.6s0-.9-.9-.9-3.5-1.7-3.5 0v11.4c.9.9 3.5 0 4.4 0v-6.1c0-.9.9-2.6 0-4.4zm24.5-1.7c2.6 1.7 0 13.1 2.6 17.5-1.7.9-4.4 0-6.1.9-1.7-4.4.9-12.2-.9-16.6h-2.6c-.9 4.4 0 10.5 0 15.7h-6.1c0-11.4-.9-24.5.9-35 5.2-.9 14-1.7 14.9 3.5-.1 3.5-1 11.4-2.7 14zm-7.9-14V461c.9 0 3.5 0 3.5-.9v-11.3c0-.1-2.6.8-3.5.8zm54.2 31.5c-.9-2.6-.9-6.1-.9-8.7 0-8.7 0-19.2.9-27.1 4.4-.9 10.5-.9 12.2 1.7.9.9.9 3.5.9 4.4v26.2c-.9 5.2-8.7 4.4-13.1 3.5zm4.4-31.5v26.2h4.4c-.9-7.9.9-18.4-.9-25.4 0-.8-2.6.1-3.5-.8zm-197.6 14.9c-.9 5.2 0 11.4-.9 16.6-.9.9-3.5.9-4.4 0-.9-10.5-.9-24.5 0-35 1.7 0 10.5-1.7 12.2 0 .9.9 1.7 3.5 1.7 3.5.9 3.5.9 12.2-1.7 14-1.7 1.7-4.3.9-6.9.9zm3.5-14h-4.4v8.7c2.6 0 3.5 0 5.2-.9.1-2.6.9-6.1-.8-7.8zm14.9-5.3c.9 8.7 0 20.1.9 29.7 1.7 0 6.1-.9 7.9.9v5.2c-3.5 0-9.6.9-12.2-.9 0-11.4-.9-24.5.9-35-.2.1 1.6.1 2.5.1zm142.5 0c.9 0 .9 5.2.9 6.1 0 2.6.9 6.1 1.7 8.7.9 2.6 1.7 5.2 1.7 7.9.9 2.6.9 5.2.9 7 0 1.7 1.7 4.4.9 6.1-1.7 0-3.5 0-4.4-.9 0-2.6-.9-5.2-.9-7-.9-.9-3.5 0-5.2 0 0 2.6 0 6.1-1.7 7.9h-4.4c.9-11.4 2.6-24.5 5.2-35.8 0 0 0-.9.9-.9 1.7.9 2.6.9 4.4.9zm-3.5 22.8h3.5c0-3.5-.9-7-1.7-10.5-1 3.5-1 7-1.8 10.5zm29.7-21.9v18.4c0 6.1.9 13.1-.9 17.5-.9 0-3.5 0-5.2-.9-.9-6.1-3.5-13.1-5.2-19.2-.9 6.1.9 13.1 0 20.1-1.7.9-4.4 0-5.2-.9-.9-10.5 0-24.5 0-35h5.2c2.6 5.2 5.2 11.4 6.1 18.4.9-5.2-.9-13.1.9-18.4.8-.9 1.7-.9 4.3 0zm-210.7-.9c4.4.9 7.9-1.7 11.4.9 1.7.9 3.5 14.9 1.7 17.5-1.7 2.6-5.2 1.7-7.9 1.7-.9 4.4 0 11.4-.9 15.7-.9 0-3.5 0-4.4-.9-.8-11.3-.8-22.6.1-34.9 0 .9 0 0 0 0zm4.4 14c1.7 0 3.5 0 4.4-.9 0-2.6 0-5.2-.9-7.9-.9-.9-2.6-.9-4.4-.9.9 3.6.9 7.1.9 9.7zm118 14.9c0 2.6.9 6.1-.9 7s-3.5 0-4.4-.9v-7c1.8-.9 3.5 0 5.3.9zm-12.3 37.6c1.7-4.4-2.6-6.1-5.2-7.9-22.7-2.6-18.4 26.2-1.7 27.1 7 0 14.9-3.5 21.9-6.1 1.7-.9 5.2-1.7 7 0 1.7 2.6-1.7 5.2-.9 6.1 5.2 1.7 11.4-6.1 16.6-5.2 2.6 0 6.1 3.5 3.5 7h173.1c2.6 0 9.6-.9 10.5.9.9 3.5-8.7 1.7-11.4 1.7h-473c-2.6 0-12.2.9-11.4-1.7 0-1.7 7.9-.9 9.6-.9h171.4c0-1.7-2.6-3.5-.9-6.1 8.7-2.6 14 4.4 21 4.4 1.7-2.6-4.4-3.5-2.6-7 1.7-3.5 10.5 3.5 13.1 4.4 5.2 1.7 13.1 3.5 19.2 1.7 7.9-1.7 13.1-11.4 9.6-19.2-.9-2.6-4.4-6.1-8.7-7-5.2 0-11.4 2.6-10.5 8.7 4.4 0 4.4-4.4 8.7-4.4 7.9 0 7.9 11.4.9 14-8.7 2.6-14.9-6.1-13.1-13.1 1.7-5.2 10.5-9.6 17.5-7 3.5.9 6.1 4.4 7 7 4.4 9.6-2.6 17.5-8.7 24.5 6.1-.9 13.1 0 20.1 0-3.5-6.1-10.5-16.6-5.2-25.4 1.7-3.5 6.1-6.1 11.4-7 3.5 0 9.6 0 12.2 2.6 7 7 0 20.1-8.7 18.4-7-.9-8.7-14 0-14 3.4.9 5.1 2.6 7.7 3.5zm46.4 42.8c2.6 12.2 5.2 23.6 7.9 35H376c-.9-1.7-.9-4.4-.9-6.1-.9-.9-3.5 0-5.2 0-.9 1.7-.9 4.4-1.7 7-1.7 0-7 0-8.7-.9 2.6-12.2 4.4-23.6 7.9-35 3.3 0 8.5-.8 10.3 0zm-6.1 21.9h1.7c0-1.7 0-4.4-.9-5.2 0 1.7-.8 2.6-.8 5.2zm-17.5-21c0 11.4.9 25.4 0 35-2.6 0-5.2 0-7-.9-.9-5.2 0-10.5 0-15.7-1.7 5.2-3.5 11.4-5.2 15.7-1.7.9-4.4 0-7 0-2.6-4.4-3.5-9.6-4.4-14-.9 4.4 0 10.5-.9 13.1-1.7.9-5.2.9-7 0 0-10.5-.9-24.5 0-34.1 2.6-.9 7 0 9.6 0 2.6 5.2 3.5 13.1 6.1 18.4 2.6-5.2 3.5-12.2 6.1-18.4 2.7 0 6.2 0 9.7.9zm-161.8 0v7h-5.2c-1.7 9.6 0 17.5-.9 27.1h-8.7c-.9-7.9 0-18.4 0-27.1-1.7-.9-3.5 0-7-.9-.9-1.7 0-4.4 0-6.1h21.8zm62.1 0c4.4.9 11.4-.9 14.9 0 9.6 3.5 4.4 17.5 6.1 29.7-1.7 7-14.9 5.2-21.9 4.4 0-10.5 0-22.7.9-34.1-.9 0 0 0 0 0zm7 7v21c.9 0 4.4 0 5.2-.9 1.7-5.2 1.7-15.7 0-20.1h-5.2zm181-7c-1.7 6.1-5.2 10.5-7.9 15.7 2.6 7.9 7.9 11.4 11.4 18.4-4.4 0-7.9.9-12.2 0-1.7-2.6-4.4-6.1-6.1-8.7-.9 2.6 0 7-.9 8.7H418c-.9-10.5-.9-23.6 0-35h8.7c.9 2.6 0 6.1 0 8.7 1.7-3.5 3.5-6.1 6.1-9.6 3.5 1.8 7 1.8 9.6 1.8zm-227.3 15.7c5.2 2.6 1.7 13.1 5.2 17.5-2.6.9-7.9.9-10.5 0-2.6-3.5 1.7-14.9-4.4-14.9-.9 4.4 0 10.5-.9 14.9-1.7 0-5.2.9-7.9 0-.9-10.5 0-23.6 0-33.2 6.1 0 16.6-2.6 19.2 3.5 2.8 3.5 1.9 10.5-.7 12.2zm-9.7-2.6c1.7 0 2.6 0 3.5-.9 0-1.7 0-3.5-.9-5.2-.9-.9-2.6 0-3.5-.9.9 2.6.9 4.4.9 7zm202.9 2.6c5.2 2.6 1.7 13.1 5.2 17.5-2.6.9-7.9.9-10.5 0-2.6-3.5 1.7-14.9-4.4-14.9-.9 4.4 0 10.5-.9 14.9-1.7 0-5.2.9-7.9 0-.9-10.5 0-23.6 0-33.2 6.1 0 16.6-2.6 19.2 3.5 2.8 3.5 1.9 10.5-.7 12.2zm-9.6-2.6c1.7 0 2.6 0 3.5-.9 0-1.7 0-3.5-.9-5.2-.9-.9-2.6 0-3.5-.9.9 2.6.9 4.4.9 7zm-158.3-13.1c2.6 4.4 2.6 10.5 4.4 16.6.9 6.1 3.5 11.4 4.4 16.6-1.7.9-5.2 0-8.7 0-.9-2.6-1.7-5.2-2.6-7.9-.9-.9-2.6 0-4.4 0-.9 2.6-1.7 5.2-.9 7.9H223c1.7-10.5 4.4-22.7 7.9-33.2 2.5.9 6 0 9.5 0zm-6.1 19.2h1.7c-.9-1.7-.9-3.5-.9-5.2.1 1.7.1 3.5-.8 5.2zm320.9 31.5c0 4.4-6.1 2.6-10.5 2.6h-39.3c-14 0-28-.9-42.8 0-27.1.9-79.6-.9-115.4 0 0 1.7 1.7 3.5.9 5.2-1.7 4.4-9.6.9-13.1-.9-1.7 7-7 .9-11.4-.9-2.6-.9-6.1-2.6-9.6-1.7-3.5.9-6.1 7.9-3.5 11.4 1.7 2.6 7.9 4.4 9.6-.9-1.7-.9-3.5 2.6-6.1.9-3.5-2.6 0-6.1 1.7-6.1 2.6-.9 7 .9 7 3.5 2.6 8.7-10.5 10.5-14 6.1-4.4-4.4-.9-13.1 3.5-16.6h-11.4c.9 3.5 4.4 5.2 4.4 8.7.9 7-5.2 11.4-11.4 10.5-4.4-.9-6.1-7-3.5-10.5 2.6-2.6 10.5-2.6 9.6 2.6-.9 4.4-5.2 1.7-7.9 2.6 1.7 4.4 9.6 1.7 9.6-2.6.9-3.5-2.6-7.9-5.2-8.7-7-1.7-11.4 8.7-17.5 5.2-.9-.9-1.7-1.7-1.7-3.5-2.6 3.5-15.7 3.5-10.5-4.4H70c-2.6 0-11.4.9-12.2-.9-.9-2.6 6.1-1.7 8.7-1.7 26.2-1.7 53.3 0 78.7 0h400.4c4.3-.8 7.8-1.6 9.6.1zm-255.3-50.7c.9 1.7.9 6.1 0 7.9-1.7 0-5.2.9-8.7 0v5.2c2.6 0 6.1-.9 8.7 0 .9 1.7.9 5.2 0 7-2.6.9-5.2.9-8.7.9-.9 1.7 0 4.4 0 6.1h8.7c.9 1.7.9 5.2 0 7-4.4.9-11.4 0-16.6.9-.9-10.5-.9-24.5 0-35 5.2-.9 12.2-.9 16.6 0z"/></g></svg>