<?xml version="1.0" encoding="utf-8"?>
<!-- Generator: Adobe Illustrator 17.1.0, SVG Export Plug-In . SVG Version: 6.00 Build 0)  -->
<!DOCTYPE svg PUBLIC "-//W3C//DTD SVG 1.1//EN" "http://www.w3.org/Graphics/SVG/1.1/DTD/svg11.dtd">
<svg version="1.1" id="Layer_1" xmlns="http://www.w3.org/2000/svg" xmlns:xlink="http://www.w3.org/1999/xlink" x="0px" y="0px"
	 viewBox="0 110 612 555" enable-background="new 0 110 612 555" xml:space="preserve">
<g>
	<path fill="#231F20" d="M72.6,385.8c8.7,0,19.2-4.4,29.7-3.5c1.7-4.4,1.7-8.7,3.5-13.1c1.7-5.2,4.4-10.5,6.1-15.7
		c0.9-1.7,0.9-4.4,1.7-6.1c0.9-1.7,0.9-2.6,1.7-4.4c0-0.9,0.9-1.7,0.9-2.6c0-0.9,0-1.7,0-2.6c0-0.9,0.9-1.7,0.9-2.6
		c0.9-1.7,0.9-4.4,1.7-6.1c0.9-3.5,2.6-6.1,3.5-9.6c0.9-3.5,1.7-6.1,2.6-9.6s2.6-5.2,3.5-8.7c1.7-3.5,1.7-7.9,3.5-11.4
		c1.7-4.4,2.6-7.9,3.5-12.2c1.7-7,5.2-14,8.7-21c1.7-4.4,4.4-8.7,5.2-14c0-1.7,0.9-3.5,0.9-5.2c0.9-1.7,1.7-5.2,3.5-5.2
		c2.6-0.9,7,5.2,8.7,7c0.9,0.9,1.7,2.6,2.6,3.5c0.9,0.9,1.7,2.6,1.7,3.5c0,1.7,0,2.6,0,4.4c-0.9,2.6-1.7,6.1-2.6,8.7
		c-0.9,1.7-0.9,2.6-1.7,4.4c-1.7,5.2-3.5,9.6-5.2,14c-2.6,7-5.2,13.1-7.9,20.1c-1.7,4.4-2.6,9.6-4.4,14c-1.7,5.2-3.5,10.5-5.2,16.6
		c-0.9,4.4-2.6,7.9-4.4,12.2s-2.6,7.9-4.4,12.2c-1.7,7-5.2,14-7,21c0,1.7-0.9,2.6-0.9,4.4c0,0.9-0.9,2.6-0.9,3.5
		c4.4,0.9,9.6,0.9,14,0.9c1.7-3.5,2.6-6.1,4.4-9.6c2.6-4.4,5.2-10.5,9.6-15.7c0.9-0.9,1.7-0.9,2.6-1.7c3.5-4.4,7-7.9,13.1-10.5
		c0.9-0.9,4.4-1.7,5.2-1.7c3.5,0,5.2,4.4,7.9,6.1c1.7,0.9,3.5,1.7,5.2,3.5c1.7,0.9,3.5,2.6,5.2,4.4c0.9,1.7,2.6,4.4,2.6,6.1
		c0,2.6-0.9,5.2-1.7,8.7c-0.9,5.2-0.9,8.7-3.5,12.2c-1.7,1.7-4.4,2.6-6.1,4.4c-0.9,0.9-1.7,1.7-3.5,1.7c-1.7,0.9-2.6,1.7-4.4,1.7
		c-1.7,0.9-3.5,0.9-5.2,1.7c-3.5,0.9-7,2.6-10.5,3.5c-0.9,0-6.1,0.9-6.1,0.9c-1.7,7.9,0,17.5,4.4,22.7c2.6,0.9,7-0.9,9.6-2.6
		c3.5-1.7,7-5.2,9.6-7.9c7-6.1,12.2-13.1,17.5-21c0.9-1.7,1.7-4.4,3.5-6.1c0.9-0.9,0.9-0.9,0.9-1.7c0.9-3.5,2.6-6.1,4.4-8.7
		c1.7-2.6,3.5-7,3.5-9.6c0.9-4.4-1.7-9.6,0-14c0.9-1.7,1.7-2.6,2.6-4.4c0.9-0.9,0.9-1.7,0.9-2.6c0-2.6,3.5-2.6,5.2-1.7
		c1.7,0.9,2.6,4.4,4.4,5.2c1.7,1.7,3.5,3.5,4.4,4.4c0.9,2.6,0,5.2,1.7,7c4.4-0.9,7-3.5,10.5-2.6c1.7,0,3.5,1.7,6.1,2.6
		c1.7,0.9,4.4,0.9,6.1,2.6c0.9,0.9,1.7,2.6,2.6,4.4c0.9,2.6,1.7,6.1,1.7,9.6c0,3.5-2.6,5.2-3.5,7c-8.7,7.9-15.7,16.6-19.2,28.9
		c0,0.9-0.9,3.5-0.9,4.4c0.9,0.9,3.5-1.7,4.4-2.6c0.9-0.9,0.9-0.9,1.7-1.7c1.7-1.7,3.5-3.5,6.1-5.2c3.5-3.5,7.9-7,10.5-11.4
		c-2.6-6.1,0.9-11.4,6.1-7c3.5-3.5,5.2-7.9,8.7-12.2c0.9-1.7,2.6-2.6,3.5-4.4s1.7-3.5,2.6-5.2c0.9-1.7,2.6-3.5,3.5-6.1
		c0.9-1.7,2.6-3.5,3.5-6.1c0.9-0.9,0.9-1.7,1.7-3.5c0-0.9,0.9-1.7,0.9-2.6s0-2.6,0-3.5s0-2.6,0-3.5c0-0.9,0-2.6,0-3.5
		c0-0.9,1.7-0.9,2.6-0.9c0,0,0-0.9,0-1.7l0.9-0.9c0.9-0.9,1.7-0.9,2.6-0.9c1.7,0,3.5,0.9,5.2,2.6c0.9,0.9,0.9,2.6,0.9,3.5
		c2.6,2.6,6.1,6.1,6.1,10.5c0,1.7-0.9,3.5-1.7,4.4c-0.9,6.1,0,14,1.7,20.1c1.7,6.1,2.6,14,2.6,21c1.7-0.9,2.6-2.6,3.5-4.4
		c1.7-3.5,4.4-7,6.1-10.5c1.7-4.4,3.5-7.9,6.1-11.4c0.9-1.7,2.6-3.5,4.4-5.2c2.6-4.4,5.2-7.9,7.9-11.4c1.7-1.7,4.4-4.4,7-6.1
		c0.9-0.9,2.6-1.7,3.5-2.6c0.9-0.9,1.7-2.6,3.5-2.6c0.9-0.9,2.6-0.9,3.5-0.9s2.6-0.9,3.5-0.9c2.6,0,5.2-0.9,7,0.9
		c1.7,0.9,4.4,2.6,6.1,4.4c0.9,1.7,2.6,4.4,4.4,5.2c0.9,0,1.7,0,1.7,0c0.9,0,2.6-0.9,3.5,0c0.9,0.9,1.7,1.7,1.7,3.5
		c0,2.6,0,5.2-0.9,7c0,0.9-0.9,1.7-0.9,2.6c0,0.9-0.9,1.7-1.7,2.6c-0.9,0.9-1.7,1.7-1.7,3.5c-0.9,1.7-0.9,2.6-1.7,4.4
		c-0.9,1.7-1.7,2.6-2.6,4.4c-0.9,2.6-1.7,4.4-6.1,2.6c-0.9-0.9-2.6-1.7-3.5-2.6c-0.9-0.9-1.7-0.9-2.6-2.6c-2.6,1.7-2.6,0.9-2.6-0.9
		c0-1.7-0.9-2.6-0.9-3.5c0-1.7,0.9-2.6,0.9-3.5c0-0.9,0.9-1.7,0-2.6c-0.9-0.9-2.6,0-3.5,0c-2.6,0.9-3.5,3.5-5.2,5.2
		c-2.6,2.6-5.2,5.2-7,8.7c-0.9,1.7-1.7,3.5-2.6,5.2s-2.6,3.5-2.6,5.2c-1.7,6.1-2.6,10.5,1.7,14.9c0.9,0.9,1.7,0.9,2.6,0.9
		c0.9,0,0.9,0.9,1.7,0.9c1.7,0.9,3.5,1.7,5.2,1.7c5.2-0.9,13.1-4.4,17.5-7c1.7-0.9,3.5-3.5,6.1-4.4c1.7-1.7,4.4-3.5,5.2-5.2
		c0-0.9,0.9-1.7,0.9-2.6c1.7-3.5,3.5-7,4.4-11.4c0.9-2.6,1.7-5.2,2.6-7c0.9-0.9,0.9-2.6,0.9-3.5c0.9-2.6,2.6-4.4,3.5-7
		c1.7-2.6,2.6-6.1,4.4-8.7c0.9-1.7,1.7-3.5,2.6-5.2c1.7-3.5,2.6-6.1,3.5-9.6c0.9-1.7,0.9-3.5,1.7-4.4c0.9-1.7,1.7-2.6,1.7-4.4
		c0-1.7,0.9-2.6,0.9-4.4c0.9-1.7,1.7-2.6,1.7-4.4c1.7-3.5,3.5-7.9,5.2-11.4c0.9-2.6,1.7-5.2,3.5-7.9c1.7-3.5,3.5-7.9,5.2-12.2
		c1.7-2.6,2.6-4.4,3.5-7.9c0.9-2.6,2.6-4.4,4.4-7c1.7-2.6,1.7-6.1,3.5-9.6c1.7-2.6,2.6-5.2,4.4-8.7c0.9-2.6,1.7-5.2,3.5-8.7
		c0.9-1.7,2.6-6.1,4.4-7c4.4-1.7,8.7,5.2,10.5,8.7c0.9,0.9,1.7,2.6,1.7,4.4c0,2.6,0,5.2-0.9,7.9c-1.7,7.9-5.2,14-7.9,20.1
		c-7,12.2-14,24.5-21,36.7c-0.9,1.7-2.6,3.5-3.5,5.2c-0.9,1.7-0.9,3.5-1.7,4.4c-0.9,1.7-1.7,2.6-2.6,4.4c-0.9,1.7-0.9,2.6-1.7,4.4
		c0,0.9-0.9,2.6-0.9,3.5c-0.9,0.9-0.9,2.6-1.7,3.5c2.6-0.9,4.4-1.7,6.1-3.5c0.9-0.9,1.7-1.7,2.6-1.7c1.7-0.9,4.4-1.7,6.1-2.6
		c1.7-0.9,4.4-0.9,7-0.9c2.6,0.9,5.2,2.6,7,4.4c1.7,0.9,3.5,2.6,4.4,3.5c0.9,1.7,2.6,3.5,3.5,5.2c0.9,4.4-0.9,7-1.7,10.5
		c0,1.7,0,3.5,0,5.2c0,1.7-0.9,2.6-1.7,4.4c-1.7,2.6-3.5,5.2-4.4,7.9c-0.9,1.7-0.9,3.5-1.7,4.4c-0.9,1.7-2.6,3.5-3.5,5.2
		c-0.9,1.7-1.7,3.5-1.7,5.2c-0.9,1.7-1.7,4.4-2.6,6.1s-2.6,6.1,0,7c1.7,0.9,6.1-1.7,7.9-3.5c1.7-1.7,3.5-2.6,5.2-4.4
		c1.7-1.7,3.5-2.6,5.2-4.4c1.7-1.7,3.5-3.5,5.2-6.1c0.9-3.5,0.9-8.7,1.7-12.2s2.6-7,4.4-10.5c4.4-8.7,9.6-14.9,17.5-21
		c1.7-1.7,2.6-2.6,4.4-3.5c4.4-1.7,10.5,0,13.1,2.6c1.7,1.7,4.4,3.5,6.1,5.2c2.6,2.6,7,4.4,7.9,8.7c0.9,1.7,0,3.5,0,6.1
		c-0.9,2.6-0.9,4.4-1.7,7c-0.9,2.6-1.7,5.2-2.6,7c-0.9,0.9-1.7,1.7-3.5,3.5c-1.7,1.7-4.4,3.5-7,6.1c-2.6,2.6-5.2,4.4-8.7,7
		c-1.7,0.9-4.4,4.4-7.9,3.5c-2.6-0.9-4.4-3.5-7-4.4c-1.7,5.2,1.7,10.5,4.4,14.9c0.9,0.9,1.7,1.7,2.6,1.7c3.5,0.9,6.1-0.9,8.7-2.6
		c4.4-2.6,6.1-6.1,9.6-8.7c1.7-1.7,4.4-2.6,5.2-4.4c0.9-0.9,2.6-2.6,3.5-4.4c1.7-2.6,4.4-6.1,7-7.9c0.9-0.9,2.6-1.7,4.4-3.5
		c0.9-0.9,2.6-2.6,3.5-4.4c3.5-4.4,4.4-7,5.2-13.1c0.9-3.5,0.9-7.9,0.9-11.4c0.9-3.5,0.9-7,1.7-10.5c0.9-2.6,0.9-4.4,0.9-7
		c1.7-10.5,6.1-20.1,9.6-30.6c0.9-2.6,0.9-5.2,1.7-7.9c0.9-2.6,2.6-4.4,2.6-7c0.9-1.7,0.9-4.4,1.7-6.1c0.9-1.7,2.6-3.5,3.5-6.1
		c0.9-1.7,1.7-3.5,2.6-6.1c3.5-7.9,7-15.7,11.4-23.6c1.7-3.5,4.4-7.9,6.1-11.4c1.7-2.6,1.7-7,5.2-7.9c2.6-0.9,7.9,1.7,10.5,3.5
		c3.5,2.6,0.9,9.6,0,14c-0.9,3.5-1.7,6.1-1.7,9.6c0,1.7,0,2.6-0.9,4.4c-0.9,3.5-1.7,7-2.6,10.5c-0.9,3.5-0.9,7.9-1.7,11.4
		c0,1.7-1.7,3.5-1.7,6.1s0,5.2-0.9,7c-1.7,3.5-2.6,6.1-3.5,9.6c-0.9,3.5-1.7,6.1-3.5,9.6c-1.7,2.6-2.6,5.2-3.5,7.9
		c-0.9,2.6-2.6,5.2-3.5,8.7c-1.7,4.4-3.5,8.7-6.1,13.1c-3.5,7-7.9,14-12.2,21c-0.9,1.7-1.7,2.6-2.6,4.4c-0.9,1.7-2.6,2.6-2.6,4.4
		c-0.9,3.5-0.9,9.6,0,14.9c0.9,3.5,0.9,7,0.9,10.5c0,1.7,0,3.5,0.9,4.4c0,0.9,0.9,2.6,1.7,3.5c1.7,0.9,4.4,0,6.1,0
		c1.7,0,3.5-0.9,5.2-1.7c1.7-0.9,2.6-1.7,4.4-2.6c1.7-0.9,2.6-1.7,4.4-2.6c3.5-0.9,6.1-4.4,8.7-7c1.7-1.7,4.4-6.1,7-7
		c3.5-0.9,5.2,3.5,3.5,7c-0.9,2.6-2.6,4.4-3.5,7c-1.7,2.6-3.5,5.2-5.2,7.9c-2.6,2.6-5.2,4.4-8.7,7c-0.9,0.9-0.9,1.7-1.7,1.7
		c-0.9,0.9-1.7,0.9-2.6,1.7c-1.7,0.9-3.5,1.7-5.2,3.5c-1.7,0.9-3.5,1.7-6.1,2.6c-2.6,0.9-6.1,0.9-8.7,0.9c-1.7,0-4.4,0-6.1-0.9
		c-1.7-0.9-3.5-2.6-5.2-3.5c-2.6-0.9-4.4-4.4-4.4-7c-0.9-3.5-1.7-7-1.7-10.5c0-1.7,0-4.4,0-6.1c-9.6,7-21.9,21-32.3,28
		c-2.6,1.7-7.9,1.7-11.4,0.9c-2.6-0.9-5.2-2.6-7.9-3.5c-1.7-0.9-3.5-1.7-5.2-3.5c-1.7-1.7-3.5-4.4-5.2-7c-0.9-0.9-1.7-2.6-3.5-3.5
		l-2.6,1.7c-0.9,0.9-1.7,1.7-2.6,2.6c-0.9,0.9-1.7,1.7-2.6,1.7c-1.7,1.7-3.5,2.6-5.2,3.5c-3.5,2.6-8.7,4.4-13.1,4.4
		c-1.7,0-2.6,0-4.4,0c-2.6,0-5.2-0.9-7.9-2.6c-1.7-0.9-4.4-1.7-6.1-4.4c-0.9-0.9-0.9-2.6-0.9-4.4s0.9-5.2,1.7-7
		c0.9-2.6,0.9-5.2,1.7-7c1.7-3.5,3.5-7.9,5.2-11.4c0.9-2.6,2.6-5.2,3.5-7.9s0.9-5.2,1.7-7.9c0-1.7,0.9-5.2-0.9-6.1
		c-2.6-2.6-8.7-0.9-11.4,0.9c-1.7,0.9-3.5,1.7-4.4,2.6c-0.9,0.9-2.6,0.9-3.5,2.6c-0.9,0.9-0.9,1.7-1.7,2.6c-0.9,0.9-1.7,1.7-3.5,3.5
		c-0.9,0.9-0.9,2.6-1.7,3.5c0,0.9-0.9,1.7-0.9,3.5c-0.9,1.7-1.7,4.4-2.6,6.1c-0.9,2.6-2.6,5.2-3.5,9.6c-1.7,5.2-4.4,11.4-5.2,17.5
		c-0.9,2.6-0.9,6.1-1.7,8.7c0,0.9-1.7,3.5-2.6,3.5s-3.5-0.9-5.2-1.7c-3.5-1.7-7-1.7-7.9-6.1c-2.6,0.9-5.2,2.6-7,3.5
		c-0.9,0.9-1.7,1.7-2.6,1.7c-0.9,0.9-2.6,0.9-3.5,0.9c-0.9,0-0.9,0-1.7,0.9c-0.9,0.9-1.7,0.9-3.5,0.9c-1.7,0-2.6,0-4.4,0
		c-2.6,0-6.1-0.9-8.7-0.9c-1.7,0-3.5,0-4.4-0.9c-1.7-0.9-2.6-1.7-3.5-2.6c-2.6-1.7-5.2-4.4-7-7c-1.7-2.6-2.6-6.1-3.5-9.6
		c-2.6,1.7-3.5,3.5-5.2,6.1c-1.7,1.7-2.6,4.4-4.4,7c-3.5,4.4-6.1,8.7-10.5,12.2c-3.5,2.6-10.5,4.4-15.7,4.4
		c-10.5-1.7-16.6-9.6-21.9-17.5c-3.5,3.5-7.9,7.9-13.1,12.2c-3.5,2.6-4.4,4.4-8.7,6.1c-2.6,0.9-5.2,1.7-7.9,1.7
		c-1.7,0-2.6,0-4.4-0.9c-0.9,0-2.6,0-3.5-0.9c-0.9-0.9-1.7-1.7-2.6-3.5c-0.9-2.6-1.7-6.1-2.6-8.7c0-1.7,0-3.5,0-5.2
		c0-1.7,0-4.4,0.9-6.1c0.9-1.7,1.7-4.4,1.7-6.1c0.9-2.6,1.7-5.2,3.5-7.9c0.9-1.7,4.4-6.1,3.5-7c0-3.5-6.1-2.6-7.9-4.4
		c-2.6,2.6-4.4,6.1-6.1,8.7c-0.9,1.7-1.7,2.6-2.6,4.4c-0.9,1.7-1.7,3.5-2.6,5.2c-0.9,1.7-2.6,2.6-3.5,4.4c-0.9,1.7-1.7,3.5-2.6,5.2
		c-2.6,3.5-3.5,7-6.1,9.6c-1.7,2.6-4.4,6.1-7,8.7c-2.6,2.6-6.1,6.1-9.6,7.9c-1.7,0.9-4.4,0.9-6.1,0.9c-2.6,0-5.2,0.9-7,0.9
		c-2.6,0.9-5.2,0.9-7.9,0.9c-1.7,0-3.5-1.7-6.1-1.7c-1.7-0.9-2.6-0.9-4.4-1.7c-1.7-0.9-2.6-2.6-3.5-3.5c-0.9-0.9-1.7-1.7-2.6-2.6
		c-3.5-6.1-4.4-14.9-4.4-23.6c-5.2-0.9-11.4-0.9-16.6-1.7c-0.9,0-4.4,12.2-4.4,14c-1.7,5.2-2.6,9.6-3.5,14.9c0,1.7-0.9,4.4-0.9,6.1
		c0,0.9-0.9,1.7-0.9,2.6c-2.6,7.9-5.2,14.9-7.9,22.7c0,1.7-0.9,2.6-1.7,3.5c-0.9,1.7-2.6,0.9-4.4,1.7c-0.9,0-0.9,0.9-1.7,0.9
		s-1.7-0.9-1.7-1.7c-0.9-1.7,0-4.4,0-6.1c0-2.6-0.9-6.1-0.9-9.6c0-2.6,0.9-5.2,0.9-7c0-3.5,0.9-7,1.7-10.5
		c0.9-5.2,0.9-11.4,2.6-16.6c0.9-5.2,2.6-10.5,3.5-14.9c-10.5,0.9-21,3.5-29.7,7c-0.9,0.9-0.9,2.6-1.7,4.4c-0.9,1.7-1.7,4.4-2.6,6.1
		c-0.9,6.1-2.6,12.2-3.5,18.4c0,3.5-0.9,6.1-1.7,9.6c-1.7,7.9-3.5,15.7-5.2,24.5c0,0.9,0,1.7-0.9,2.6s-1.7,0.9-2.6,1.7
		c-0.9,0.9-0.9,3.5-2.6,3.5c4.4-1.7,0.9-3.5,0.9-3.5c-0.9-0.9-0.9-2.6-0.9-3.5c-0.9-2.6-0.9-5.2,0-7.9c0-4.4,0.9-7.9,1.7-12.2
		c0-2.6,0.9-4.4,0.9-7c1.7-10.5,1.7-21,4.4-30.6c-2.6,0.9-7,2.6-10.5,1.7c-1.7-0.9-5.2-3.5-6.1-6.1c-0.9-1.7-1.7-4.4-1.7-7
		c0-0.9-0.9-2.6-0.9-3.5s0.9-0.9,1.7-0.9c1.7,0.9,2.6,0,4.4-0.9c1.7,0,3.5-0.9,5.2-0.9c3.5-0.9,7.9-2.6,11.4-4.4
		c0.9-2.6,0.9-6.1,1.7-9.6c1.7-7,2.6-13.1,4.4-20.1c0.9-2.6,0.9-6.1,1.7-8.7c0-0.9,0-1.7,0-2.6s0-1.7,0-2.6c0-0.9,0.9-2.6,0.9-3.5
		c0.9-2.6,1.7-5.2,1.7-7c0.9-6.1,1.7-13.1,3.5-20.1c1.7-6.1,4.4-12.2,5.2-18.4c0-2.6,0-5.2,0.9-7.9c0-1.7,1.7-2.6,1.7-3.5
		s0-2.6,0-4.4c2.6-11.4,7-22.7,9.6-34.1c0-1.7,0.9-3.5,0.9-4.4c0-1.7,0-3.5,0.9-4.4c0.9-1.7,1.7-3.5,1.7-4.4c0.9-3.5,1.7-7,1.7-10.5
		c0.9-1.7,0.9-3.5,1.7-5.2c0.9-1.7,4.4,0,5.2,0s1.7,0.9,2.6,0.9c1.7,0.9,2.6,0.9,3.5,1.7c0.9,0.9,1.7,1.7,2.6,2.6
		c1.7,1.7,3.5,3.5,4.4,6.1c0.9,1.7,0.9,3.5,0.9,5.2s-1.7,3.5-1.7,5.2c-1.7,4.4-2.6,8.7-3.5,13.1c-4.4,11.4-7.9,24.5-12.2,36.7
		c-0.9,1.7-1.7,4.4-1.7,6.1c-1.7,5.2-1.7,11.4-3.5,16.6c-0.9,2.6-1.7,4.4-2.6,7.9c-0.9,2.6-1.7,5.2-1.7,7.9
		c-2.6,13.1-5.2,25.4-8.7,38.5C76.9,372.7,73.4,378.8,72.6,385.8z M564.8,264.3c-3.5,7.9-7,14.9-9.6,24.5c-0.9,0.9-0.9,2.6-0.9,3.5
		c0,3.5-10.5,28.9-9.6,32.3c2.6-3.5,11.4-29.7,13.1-33.2c0-0.9,0-0.9,0-0.9C561.3,282.6,563.9,273.9,564.8,264.3L564.8,264.3z
		 M173.1,361.3c-5.2,5.2-9.6,10.5-14,15.7c-0.9,0.9-2.6,2.6-2.6,4.4C167,379.7,174,371.8,173.1,361.3
		C174,361.3,174,361.3,173.1,361.3z M269.3,408.5c1.7,0.9,3.5,2.6,4.4,2.6s3.5-2.6,4.4-3.5c2.6-2.6,5.2-6.1,5.2-8.7
		c0-8.7-2.6-19.2-2.6-28c0,0,0,0-0.9,0c-7.9,8.7-11.4,20.1-18.4,29.7c1.7,1.7,2.6,4.4,4.4,6.1C267.5,406.8,268.4,407.6,269.3,408.5z
		 M470.4,373.5c3.5-0.9,17.5-14,16.6-22.7C480.8,349.1,472.1,370.1,470.4,373.5z"/>
	<path fill="#231F20" d="M284.1,151.5c0,4.4,1.7,8.7,1.7,14c2.6,0,8.7-2.6,7.9,1.7c0,2.6-5.2,1.7-7.9,2.6c0,5.2,0.9,10.5,1.7,15.7
		c2.6,0,9.6-2.6,10.5,0c0.9,3.5-12.2,3.5-14,2.6c-1.7-11.4-2.6-26.2-2.6-38.5c1.7-0.9,6.1-0.9,8.7-1.7c1.7,0,3.5-0.9,3.5,0.9
		C294.6,151.5,286.8,150.6,284.1,151.5z"/>
	<path fill="#231F20" d="M312.1,150.6c-1.7-2.6-6.1-0.9-7,1.7c-0.9,1.7-0.9,4.4,0,6.1c0.9,2.6,4.4,5.2,6.1,8.7
		c3.5,4.4,6.1,9.6,3.5,16.6c-2.6,3.5-9.6,5.2-13.1,0c-0.9-1.7-3.5-12.2,0.9-12.2c3.5,0,0,11.4,5.2,11.4c2.6,0,5.2-1.7,5.2-5.2
		c-0.9-8.7-10.5-12.2-11.4-21.9c0-1.7,0-3.5,1.7-5.2c3.5-6.1,12.2-4.4,12.2,3.5c0,0.9,0,3.5-1.7,3.5c-0.9,0-0.9-1.7-0.9-2.6
		C313,153.2,313,152.4,312.1,150.6z"/>
	<path fill="#231F20" d="M338.3,151.5c-1.7,1.7-5.2,0-7,0c0,9.6,0,19.2-0.9,28.9c0,0.9,0,2.6,0,3.5c0,1.7,0,3.5-2.6,3.5
		c-1.7-1.7-0.9-4.4-0.9-6.1c0.9-9.6,0.9-20.1,1.7-29.7c0,0.9-5.2,0-6.1,0c-0.9,0-2.6-0.9-1.7-1.7c0-0.9,2.6-0.9,3.5-0.9
		c2.6,0,4.4,0,7,0C334,148,339.2,148,338.3,151.5z"/>
	<path fill="#231F20" d="M361.9,188.2c0.9,0.9,1.7,2.6,2.6,3.5s1.7,1.7,2.6,2.6c1.7,0.9,3.5,0.9,4.4,1.7c3.5,0.9,7,2.6,10.5,2.6
		c1.7,0.9,4.4,0.9,6.1,0.9c7.9,0.9,15.7,0.9,23.6,1.7c7,0.9,14,2.6,21,4.4c8.7,2.6,19.2,6.1,26.2,12.2c0.9,0.9,6.1,6.1,2.6,7.9
		c-2.6,0.9-3.5-3.5-4.4-4.4c-2.6-2.6-6.1-3.5-8.7-5.2c-3.5-1.7-7-2.6-10.5-4.4c-7.9-2.6-15.7-4.4-23.6-6.1
		c-13.1-1.7-27.1-1.7-38.5-5.2c-5.2-1.7-11.4-2.6-14-7.9c-0.9-0.9-0.9-1.7-1.7-2.6c0-0.9,0-1.7-0.9-1.7s-1.7,0-1.7,0
		c-0.9,0-0.9-0.9-1.7-0.9c-2.6-1.7-4.4-4.4-4.4-7c-0.9-5.2,1.7-14.9,2.6-20.1c0.9-4.4,0.9-8.7,3.5-10.5c1.7-1.7,7.9-1.7,9.6-0.9
		s3.5,4.4,3.5,6.1c0,2.6-0.9,6.1-0.9,9.6c-0.9,5.2-1.7,9.6-2.6,14C364.6,183.8,363.7,186.5,361.9,188.2z M354.1,172.5
		c-0.9,5.2-0.9,12.2,3.5,12.2c4.4,0.9,4.4-2.6,4.4-6.1c0.9-5.2,2.6-10.5,2.6-16.6c0-1.7,0.9-3.5,0.9-5.2c0-1.7-1.7-4.4-3.5-4.4
		c-1.7-0.9-4.4-0.9-5.2,1.7c-0.9,1.7,0,3.5-0.9,5.2c0,1.7-0.9,4.4-0.9,6.1C355,168.1,354.1,169.8,354.1,172.5z"/>
	<path fill="#231F20" d="M276.3,188.2c-3.5,2.6-5.2-0.9-7-4.4c-2.6-5.2-6.1-13.1-7.9-17.5c0,5.2,0.9,11.4,1.7,16.6
		c0,1.7,1.7,6.1-1.7,6.1c-2.6,0-2.6-8.7-3.5-11.4c-0.9-7-0.9-13.1-2.6-20.1c0-0.9,0-2.6,0-3.5c0-1.7,0.9-3.5,2.6-1.7
		c1.7,0.9,2.6,2.6,3.5,4.4c2.6,7,5.2,14,8.7,21c0-4.4-0.9-8.7-0.9-14.9c0-3.5-2.6-13.1,1.7-12.2c1.7,0.9,1.7,2.6,1.7,5.2
		C273.6,165.5,276.3,176.8,276.3,188.2z"/>
	<path fill="#231F20" d="M377.7,152.4c0.9,0,0.9,1.7,1.7,2.6c0,1.7,0,3.5-0.9,4.4c-0.9,5.2-1.7,11.4-2.6,17.5c0,2.6-0.9,5.2-0.9,7
		c0.9,2.6,3.5,4.4,6.1,4.4c4.4-0.9,4.4-7,5.2-12.2c0.9-5.2,1.7-8.7,2.6-14.9c0-2.6,0.9-6.1,2.6-6.1c1.7,0,0.9,4.4,0.9,7.9
		c-0.9,6.1-1.7,10.5-2.6,15.7c-0.9,6.1-1.7,11.4-7,13.1c-6.1,1.7-12.2-2.6-11.4-9.6c0-3.5,1.7-7.9,2.6-11.4
		c0.9-4.4,0.9-7.9,1.7-12.2C375.9,156.7,376.8,153.2,377.7,152.4L377.7,152.4z"/>
	<path fill="#231F20" d="M255.3,189.9c-3.5,1.7-3.5-5.2-4.4-7.9c-1.7-7-1.7-13.1-3.5-20.1c0-1.7-0.9-3.5-0.9-5.2
		c0-0.9-0.9-3.5,0.9-4.4c1.7-1.7,2.6,2.6,2.6,3.5c0,0.9,0,2.6,0.9,3.5c0.9,4.4,1.7,7,1.7,11.4C252.7,178.6,256.2,185.6,255.3,189.9z
		"/>
	<path fill="#231F20" d="M231.7,160.2c1.7,4.4,2.6,8.7,3.5,13.1c1.7,0,8.7-4.4,10.5-0.9c0.9,3.5-7,3.5-8.7,4.4
		c0,3.5,0.9,6.1,2.6,9.6c0.9,2.6,2.6,7.9-0.9,7.9c-2.6,0-3.5-7-4.4-9.6c0-1.7,0-3.5-0.9-4.4c-1.7-7-5.2-16.6-5.2-23.6
		c2.6,0,7-2.6,10.5-2.6c1.7,0,3.5,0,2.6,2.6C240.4,159.3,233.4,158.5,231.7,160.2z"/>
	<path fill="#231F20" d="M404.8,184.7c-1.7-0.9-3.5-1.7-5.2-2.6c-0.9,1.7-1.7,3.5-3.5,6.1c-0.9,0.9-0.9,1.7-1.7,2.6
		c0,0.9-0.9,0.9-0.9,0.9c-2.6,0.9-2.6-1.7-1.7-3.5s1.7-3.5,2.6-5.2c4.4-7.9,7-17.5,11.4-25.4c2.6-1.7,1.7,2.6,1.7,5.2
		c0,1.7,0,3.5,0.9,6.1c0,7-0.9,14.9-0.9,20.1c0,2.6,0,5.2-1.7,6.1C402.2,196.1,404.8,187.3,404.8,184.7z M400.4,179.5
		c1.7,0.9,2.6,1.7,4.4,1.7c0.9-3.5,0.9-9.6,0-14C403.9,170.7,402.2,175.1,400.4,179.5z"/>
	<path fill="#231F20" d="M422.3,161.1c-0.9,11.4-5.2,21.9-7,32.3c1.7,1.7,9.6,1.7,8.7,5.2c0,3.5-5.2,0-6.1,0c-2.6-0.9-6.1-0.9-7-2.6
		c-0.9-1.7,0.9-6.1,1.7-8.7c1.7-7.9,5.2-19.2,7-25.4C420.5,162,421.4,160.2,422.3,161.1z"/>
	<path fill="#231F20" d="M201.1,166.3c0.9,4.4,2.6,8.7,3.5,13.1l5.2-1.7c0.9,0,1.7-0.9,2.6-0.9c1.7,0,2.6,1.7,0.9,3.5
		c-1.7,0.9-3.5,1.7-5.2,1.7l-2.6,0.9c0.9,4.4,3.5,8.7,4.4,13.1c4.4-0.9,7.9-3.5,12.2-2.6c1.7,2.6-2.6,3.5-5.2,4.4
		c-3.5,0.9-7.9,3.5-9.6,0c-0.9-1.7-1.7-5.2-2.6-7.9c-2.6-7.9-6.1-17.5-7-26.2c2.6-0.9,8.7-4.4,11.4-3.5c0.9,0,1.7,0.9,1.7,0.9
		C211.6,165.5,202.8,165.5,201.1,166.3z"/>
	<path fill="#231F20" d="M438.9,165.5c1.7,0.9,0.9,3.5,0,4.4c-1.7,7.9-3.5,15.7-6.1,23.6c-0.9,2.6-1.7,9.6-5.2,7.9
		c-1.7-2.6,0.9-5.2,1.7-8.7c1.7-5.2,3.5-12.2,5.2-18.4C435.4,170.7,436.3,167.2,438.9,165.5L438.9,165.5z"/>
	<path fill="#231F20" d="M453.7,173.3c-0.9,6.1-4.4,11.4-6.1,16.6c-0.9,2.6-0.9,5.2-1.7,7.9c-0.9,1.7-1.7,7-3.5,7
		c-3.5,0-0.9-6.1,0-7.9c2.6-8.7,6.1-16.6,8.7-24.5c0,0-3.5-1.7-4.4-1.7c-0.9,0-0.9-0.9-1.7-0.9c0,0-0.9-2.6,0-2.6
		c2.6,0,5.2,0.9,9.6,2.6c2.6,0.9,6.1,1.7,6.1,3.5C461.6,177.7,455.5,174.2,453.7,173.3z"/>
	<path fill="#231F20" d="M198.5,195.2c0.9,0.9,0.9,2.6,1.7,3.5c0.9,1.7,1.7,4.4-0.9,4.4c-2.6,0.9-2.6-3.5-3.5-6.1
		c-0.9-2.6-3.5-7-3.5-9.6c-2.6,0.9-4.4,1.7-7,1.7l2.6,7.9c0.9,1.7,0.9,2.6,1.7,4.4c0,1.7,1.7,4.4-0.9,4.4c-1.7,0-2.6-2.6-2.6-4.4
		c-0.9-3.5-3.5-7.9-4.4-12.2c-1.7-4.4-2.6-8.7-3.5-13.1c0-0.9-1.7-3.5-0.9-4.4c0.9-2.6,3.5,1.7,3.5,2.6c0.9,0.9,0.9,2.6,0.9,3.5
		c0.9,2.6,2.6,5.2,2.6,7.9c2.6,0,5.2-1.7,7.9-2.6c-0.9-3.5-1.7-5.2-2.6-9.6c-0.9-2.6-2.6-7,0-7c1.7,0,2.6,3.5,2.6,4.4
		c0.9,1.7,0.9,4.4,1.7,6.1c0.9,2.6,1.7,6.1,2.6,8.7c0.9,1.7,0.9,2.6,1.7,4.4C197.6,193.4,197.6,194.3,198.5,195.2z"/>
	<path fill="#231F20" d="M464.2,174.2C465.1,174.2,465.1,174.2,464.2,174.2c0.9,1.7,0,4.4,0.9,5.2c0,3.5,0,6.1,0.9,9.6
		c1.7-1.7,5.2-3.5,7.9-5.2c0.9-0.9,1.7-2.6,2.6-3.5c0.9-0.9,2.6-1.7,3.5-0.9c0.9,1.7-1.7,4.4-2.6,5.2c-3.5,3.5-8.7,7-12.2,11.4
		c-0.9,3.5-2.6,8.7-4.4,13.1c-0.9,1.7-0.9,5.2-4.4,3.5c0-4.4,2.6-9.6,4.4-14c0.9-3.5,1.7-6.1,1.7-12.2c0-1.7-0.9-4.4-0.9-6.1
		c0-1.7,0-4.4,0.9-5.2C463.4,173.3,464.2,173.3,464.2,174.2z"/>
	<path fill="#231F20" d="M166.1,179.5c2.6,6.1,6.1,15.7,9.6,23.6c0.9,2.6,4.4,7.9,0.9,8.7c-2.6,0.9-3.5-4.4-4.4-7
		c-3.5-7.9-6.1-15.7-8.7-23.6c-2.6,0.9-4.4,2.6-7,1.7c-0.9-2.6,3.5-3.5,6.1-5.2c2.6-0.9,6.1-3.5,7.9-3.5c0.9,0,2.6,0,2.6,1.7
		C172.2,177.7,167.9,177.7,166.1,179.5z"/>
	<path fill="#231F20" d="M290.3,280c5.2,0,11.4,0,15.7,0c0,1.7,0.9,3.5,0,5.2c-0.9,0.9-3.5,0-5.2,0c0,9.6,0,21,0,31.5
		c-0.9,0.9-4.4,0.9-5.2,0c0-10.5,0-21,0-32.3c-1.7,0-4.4,0-6.1,0C289.4,284.4,288.5,280.9,290.3,280z"/>
	<path fill="#231F20" d="M322.6,280.9c0,11.4,0,25.4,0,36.7c-0.9,0.9-3.5,0-5.2,0c-0.9-4.4,0-11.4,0-16.6c-0.9-0.9-2.6,0-3.5,0
		c0,5.2,0.9,12.2,0,16.6c-1.7,0-4.4,0.9-5.2-0.9c-0.9-11.4,0-24.5,0.9-35.8c1.7-0.9,3.5,0,5.2,0c0,4.4,0,9.6,0,14
		c0.9,0.9,2.6,0,3.5,0c0-4.4-0.9-10.5,0-14.9C319.1,280.9,320.9,280.9,322.6,280.9z"/>
	<path fill="#231F20" d="M341,281.7c0,0.9,0.9,3.5,0,4.4c-1.7,0.9-4.4,0-6.1,0c-0.9,2.6,0,7,0,9.6c1.7,0,4.4,0,6.1,0
		c0,0.9,0.9,3.5,0,4.4c-0.9,0.9-3.5,0-5.2,0.9c-0.9,3.5,0,7,0,10.5c1.7,0,4.4,0,6.1,0c0,0.9,0.9,2.6,0,4.4c-4.4,0.9-7.9,0.9-12.2,0
		c0-7.9-0.9-15.7-0.9-23.6c0-3.5-0.9-7.9,0.9-11.4C331.3,280.9,337.5,280.9,341,281.7z"/>
	<path fill="#231F20" d="M327.8,443.5c4.4-0.9,6.1,2.6,7,6.1c0.9,5.2,0,10.5,0,14.9c0,1.7,0,3.5,0,4.4c0,2.6,0.9,5.2-0.9,7.9
		c-1.7,1.7-4.4,3.5-7,3.5c-1.7,0-5.2-0.9-6.1-1.7c-2.6-2.6-1.7-20.1-1.7-26.2C320.9,447.9,322.6,444.4,327.8,443.5z M330.5,449.6
		c0-0.9-0.9-0.9-0.9-0.9c-1.7-0.9-2.6,0-3.5,1.7c-0.9,2.6,0,9.6,0,14c0,1.7,0,3.5,0,5.2c0,2.6,0,4.4,0.9,7c0,0.9,0.9,0.9,1.7,0.9
		c2.6,0,2.6-1.7,2.6-3.5c0.9-1.7,0.9-4.4,0.9-7c0-3.5,0-7.9,0-11.4c0-0.9,0-1.7,0-3.5C330.5,450.5,330.5,449.6,330.5,449.6z"/>
	<path fill="#231F20" d="M314.7,458.4c-1.7,0-3.5,0-4.4-0.9s-0.9-2.6-0.9-3.5c0-1.7,0.9-4.4-1.7-5.2c-2.6-0.9-3.5,2.6-3.5,4.4
		c0,2.6,0,8.7,0,13.1c0,3.5-0.9,8.7,1.7,9.6c5.2,1.7,2.6-6.1,4.4-9.6c0.9,0,3.5,0,4.4,0c0.9,4.4,0.9,11.4-1.7,13.1
		c-3.5,3.5-11.4,1.7-13.1-1.7c-0.9-0.9-0.9-2.6-0.9-4.4c-0.9-7.9,0.9-19.2,0.9-25.4c1.7-4.4,6.1-5.2,10.5-4.4c0.9,0,1.7,0.9,2.6,1.7
		c0.9,0.9,1.7,1.7,1.7,2.6c0,0.9,0,2.6,0,3.5C315.6,451.4,314.7,458.4,314.7,458.4z"/>
	<path fill="#231F20" d="M194.1,455.7c-0.9,0-3.5,0.9-3.5,0c-0.9-1.7,0.9-5.2-0.9-6.1c-5.2-2.6-5.2,4.4-2.6,7.9
		c2.6,3.5,7.9,7.9,7.9,14c0,4.4-0.9,10.5-7,10.5c-7,0-7-7.9-6.1-13.1c0.9,0,2.6-0.9,4.4,0c0.9,2.6-0.9,7.9,2.6,7.9
		c1.7-0.9,1.7-4.4,1.7-6.1c0-0.9-0.9-2.6-1.7-3.5c-1.7-3.5-6.1-7-7-9.6c-0.9-3.5,0-8.7,1.7-10.5c1.7-1.7,7-2.6,10.5-1.7
		C195,446.1,195,452.2,194.1,455.7z"/>
	<path fill="#231F20" d="M203.7,445.2c0.9,3.5,0,7.9,0,13.1s-0.9,10.5,0,14c0,2.6,1.7,6.1,5.2,4.4c1.7-4.4,0.9-9.6,0.9-15.7
		c0-5.2,0-11.4,0-15.7c0.9-0.9,3.5-0.9,4.4,0c0,6.1,0,12.2,0,19.2c0,4.4,0.9,9.6-0.9,14c-1.7,4.4-9.6,5.2-13.1,1.7
		c-0.9-1.7-1.7-5.2-2.6-8.7c0-3.5,0-8.7,0-14c0-4.4-0.9-11.4,1.7-12.2C201.1,444.4,202.8,444.4,203.7,445.2z"/>
	<path fill="#231F20" d="M273.6,445.2c1.7,3.5,2.6,7.9,4.4,11.4c1.7-3.5,3.5-7,4.4-11.4c0.9,0,3.5-0.9,4.4,0c0,2.6-1.7,6.1-2.6,8.7
		c-0.9,2.6-3.5,6.1-3.5,8.7c-0.9,6.1,1.7,12.2,0,18.4c-0.9,0-2.6,0-4.4,0c0-5.2,0-10.5,0-14.9c0-0.9,0-2.6,0-3.5
		c0-1.7-1.7-3.5-1.7-4.4c-0.9-1.7-0.9-3.5-1.7-5.2c-0.9-2.6-2.6-4.4-1.7-7.9C270.1,444.4,271.9,445.2,273.6,445.2z"/>
	<path fill="#231F20" d="M357.6,444.4c2.6,0,4.4,0,7,0c3.5,0,5.2,0.9,6.1,4.4c0.9,2.6,0.9,6.1,0.9,9.6c0,0.9-0.9,2.6-1.7,4.4
		c1.7,0.9,0.9,3.5,1.7,7c0,4.4,1.7,10.5-2.6,12.2c-2.6,0.9-7.9,0-11.4,0C356.7,469.7,356.7,456.6,357.6,444.4
		C357.6,445.2,357.6,444.4,357.6,444.4z M362.8,448.7c0,3.5,0,7,0,11.4c0.9,0,1.7,0,2.6,0c0.9,0,1.7-0.9,1.7-2.6
		c0-2.6,0.9-6.1-0.9-7.9C364.6,449.6,363.7,448.7,362.8,448.7z M367.2,465.3c0,0,0-0.9-0.9-0.9s-3.5-1.7-3.5,0c0,3.5,0,7.9,0,11.4
		c0.9,0.9,3.5,0,4.4,0c0,0,0-5.2,0-6.1C367.2,468.8,368.1,467.1,367.2,465.3z"/>
	<path fill="#231F20" d="M391.7,463.6c2.6,1.7,0,13.1,2.6,17.5c-1.7,0.9-4.4,0-6.1,0.9c-1.7-4.4,0.9-12.2-0.9-16.6
		c-0.9,0-1.7,0-2.6,0c-0.9,4.4,0,10.5,0,15.7c-1.7,0-4.4,0-6.1,0c0-11.4-0.9-24.5,0.9-35c5.2-0.9,14-1.7,14.9,3.5
		C394.3,453.1,393.4,461,391.7,463.6z M383.8,449.6c0,4.4,0,7.9,0,11.4c0.9,0,3.5,0,3.5-0.9s0-1.7,0-2.6s0-1.7,0-2.6s0-1.7,0-3.5
		c0-0.9,0-1.7,0-2.6C387.3,448.7,384.7,449.6,383.8,449.6z"/>
	<path fill="#231F20" d="M438,481.1c-0.9-2.6-0.9-6.1-0.9-8.7c0-8.7,0-19.2,0.9-27.1c4.4-0.9,10.5-0.9,12.2,1.7
		c0.9,0.9,0.9,3.5,0.9,4.4c0,1.7,0,4.4,0,6.1c0,4.4,0,8.7,0,13.1c0,2.6,0,5.2,0,7C450.2,482.8,442.4,482,438,481.1z M442.4,449.6
		c0,8.7,0,18.4,0,26.2c1.7,0,3.5,0,4.4,0c-0.9-7.9,0.9-18.4-0.9-25.4C445.9,449.6,443.3,450.5,442.4,449.6z"/>
	<path fill="#231F20" d="M244.8,464.5c-0.9,5.2,0,11.4-0.9,16.6c-0.9,0.9-3.5,0.9-4.4,0c-0.9-10.5-0.9-24.5,0-35
		c1.7,0,10.5-1.7,12.2,0c0.9,0.9,1.7,3.5,1.7,3.5c0.9,3.5,0.9,12.2-1.7,14C250,465.3,247.4,464.5,244.8,464.5z M248.3,450.5
		c-1.7,0-3.5,0-4.4,0c0,2.6,0,6.1,0,8.7c2.6,0,3.5,0,5.2-0.9C249.2,455.7,250,452.2,248.3,450.5z"/>
	<path fill="#231F20" d="M263.2,445.2c0.9,8.7,0,20.1,0.9,29.7c1.7,0,6.1-0.9,7.9,0.9c0,1.7,0,4.4,0,5.2c-3.5,0-9.6,0.9-12.2-0.9
		c0-11.4-0.9-24.5,0.9-35C260.5,445.2,262.3,445.2,263.2,445.2z"/>
	<path fill="#231F20" d="M405.7,445.2c0.9,0,0.9,5.2,0.9,6.1c0,2.6,0.9,6.1,1.7,8.7c0.9,2.6,1.7,5.2,1.7,7.9c0.9,2.6,0.9,5.2,0.9,7
		c0,1.7,1.7,4.4,0.9,6.1c-1.7,0-3.5,0-4.4-0.9c0-2.6-0.9-5.2-0.9-7c-0.9-0.9-3.5,0-5.2,0c0,2.6,0,6.1-1.7,7.9c-0.9,0-3.5,0-4.4,0
		c0.9-11.4,2.6-24.5,5.2-35.8c0,0,0-0.9,0.9-0.9C403,445.2,403.9,445.2,405.7,445.2z M402.2,468c0.9,0,2.6,0,3.5,0
		c0-3.5-0.9-7-1.7-10.5C403,461,403,464.5,402.2,468z"/>
	<path fill="#231F20" d="M431.9,446.1c0,5.2,0,11.4,0,18.4c0,6.1,0.9,13.1-0.9,17.5c-0.9,0-3.5,0-5.2-0.9
		c-0.9-6.1-3.5-13.1-5.2-19.2c-0.9,6.1,0.9,13.1,0,20.1c-1.7,0.9-4.4,0-5.2-0.9c-0.9-10.5,0-24.5,0-35c1.7,0,3.5,0,5.2,0
		c2.6,5.2,5.2,11.4,6.1,18.4c0.9-5.2-0.9-13.1,0.9-18.4C428.4,445.2,429.3,445.2,431.9,446.1z"/>
	<path fill="#231F20" d="M221.2,445.2c4.4,0.9,7.9-1.7,11.4,0.9c1.7,0.9,3.5,14.9,1.7,17.5c-1.7,2.6-5.2,1.7-7.9,1.7
		c-0.9,4.4,0,11.4-0.9,15.7c-0.9,0-3.5,0-4.4-0.9C220.3,468.8,220.3,457.5,221.2,445.2C221.2,446.1,221.2,445.2,221.2,445.2z
		 M225.6,459.2c1.7,0,3.5,0,4.4-0.9c0-2.6,0-5.2-0.9-7.9c-0.9-0.9-2.6-0.9-4.4-0.9C225.6,453.1,225.6,456.6,225.6,459.2z"/>
	<path fill="#231F20" d="M343.6,474.1c0,2.6,0.9,6.1-0.9,7s-3.5,0-4.4-0.9c0-2.6,0-5.2,0-7C340.1,472.3,341.8,473.2,343.6,474.1z"/>
	<path fill="#231F20" d="M331.3,511.7c1.7-4.4-2.6-6.1-5.2-7.9c-22.7-2.6-18.4,26.2-1.7,27.1c7,0,14.9-3.5,21.9-6.1
		c1.7-0.9,5.2-1.7,7,0c1.7,2.6-1.7,5.2-0.9,6.1c5.2,1.7,11.4-6.1,16.6-5.2c2.6,0,6.1,3.5,3.5,7c57.7,0,113.7,0,173.1,0
		c2.6,0,9.6-0.9,10.5,0.9c0.9,3.5-8.7,1.7-11.4,1.7c-154.7,0-314.7,0-473,0c-2.6,0-12.2,0.9-11.4-1.7c0-1.7,7.9-0.9,9.6-0.9
		c57.7,0,114.5,0,171.4,0c0-1.7-2.6-3.5-0.9-6.1c8.7-2.6,14,4.4,21,4.4c1.7-2.6-4.4-3.5-2.6-7c1.7-3.5,10.5,3.5,13.1,4.4
		c5.2,1.7,13.1,3.5,19.2,1.7c7.9-1.7,13.1-11.4,9.6-19.2c-0.9-2.6-4.4-6.1-8.7-7c-5.2,0-11.4,2.6-10.5,8.7c4.4,0,4.4-4.4,8.7-4.4
		c7.9,0,7.9,11.4,0.9,14c-8.7,2.6-14.9-6.1-13.1-13.1c1.7-5.2,10.5-9.6,17.5-7c3.5,0.9,6.1,4.4,7,7c4.4,9.6-2.6,17.5-8.7,24.5
		c6.1-0.9,13.1,0,20.1,0c-3.5-6.1-10.5-16.6-5.2-25.4c1.7-3.5,6.1-6.1,11.4-7c3.5,0,9.6,0,12.2,2.6c7,7,0,20.1-8.7,18.4
		c-7-0.9-8.7-14,0-14C327,509.1,328.7,510.8,331.3,511.7z"/>
	<path fill="#231F20" d="M377.7,554.5c2.6,12.2,5.2,23.6,7.9,35c-2.6,0-6.1,0-9.6,0c-0.9-1.7-0.9-4.4-0.9-6.1c-0.9-0.9-3.5,0-5.2,0
		c-0.9,1.7-0.9,4.4-1.7,7c-1.7,0-7,0-8.7-0.9c2.6-12.2,4.4-23.6,7.9-35C370.7,554.5,375.9,553.7,377.7,554.5z M371.6,576.4
		c0.9,0,0.9,0,1.7,0c0-1.7,0-4.4-0.9-5.2C372.4,572.9,371.6,573.8,371.6,576.4z"/>
	<path fill="#231F20" d="M354.1,555.4c0,11.4,0.9,25.4,0,35c-2.6,0-5.2,0-7-0.9c-0.9-5.2,0-10.5,0-15.7c-1.7,5.2-3.5,11.4-5.2,15.7
		c-1.7,0.9-4.4,0-7,0c-2.6-4.4-3.5-9.6-4.4-14c-0.9,4.4,0,10.5-0.9,13.1c-1.7,0.9-5.2,0.9-7,0c0-10.5-0.9-24.5,0-34.1
		c2.6-0.9,7,0,9.6,0c2.6,5.2,3.5,13.1,6.1,18.4c2.6-5.2,3.5-12.2,6.1-18.4C347.1,554.5,350.6,554.5,354.1,555.4z"/>
	<path fill="#231F20" d="M192.3,555.4c0,1.7,0,4.4,0,7c-1.7,0-3.5,0-5.2,0c-1.7,9.6,0,17.5-0.9,27.1c-2.6,0-5.2,0-8.7,0
		c-0.9-7.9,0-18.4,0-27.1c-1.7-0.9-3.5,0-7-0.9c-0.9-1.7,0-4.4,0-6.1C179.2,555.4,185.3,555.4,192.3,555.4z"/>
	<path fill="#231F20" d="M254.4,555.4c4.4,0.9,11.4-0.9,14.9,0c9.6,3.5,4.4,17.5,6.1,29.7c-1.7,7-14.9,5.2-21.9,4.4
		C253.5,579,253.5,566.8,254.4,555.4C253.5,555.4,254.4,555.4,254.4,555.4z M261.4,562.4c0,7,0,14,0,21c0.9,0,4.4,0,5.2-0.9
		c1.7-5.2,1.7-15.7,0-20.1C265.8,562.4,263.2,562.4,261.4,562.4z"/>
	<path fill="#231F20" d="M442.4,555.4c-1.7,6.1-5.2,10.5-7.9,15.7c2.6,7.9,7.9,11.4,11.4,18.4c-4.4,0-7.9,0.9-12.2,0
		c-1.7-2.6-4.4-6.1-6.1-8.7c-0.9,2.6,0,7-0.9,8.7c-2.6,0-6.1,0-8.7,0c-0.9-10.5-0.9-23.6,0-35c2.6,0,6.1,0,8.7,0
		c0.9,2.6,0,6.1,0,8.7c1.7-3.5,3.5-6.1,6.1-9.6C436.3,555.4,439.8,555.4,442.4,555.4z"/>
	<path fill="#231F20" d="M215.1,571.1c5.2,2.6,1.7,13.1,5.2,17.5c-2.6,0.9-7.9,0.9-10.5,0c-2.6-3.5,1.7-14.9-4.4-14.9
		c-0.9,4.4,0,10.5-0.9,14.9c-1.7,0-5.2,0.9-7.9,0c-0.9-10.5,0-23.6,0-33.2c6.1,0,16.6-2.6,19.2,3.5
		C218.6,562.4,217.7,569.4,215.1,571.1z M205.4,568.5c1.7,0,2.6,0,3.5-0.9c0-1.7,0-3.5-0.9-5.2c-0.9-0.9-2.6,0-3.5-0.9
		C205.4,564.1,205.4,565.9,205.4,568.5z"/>
	<path fill="#231F20" d="M408.3,571.1c5.2,2.6,1.7,13.1,5.2,17.5c-2.6,0.9-7.9,0.9-10.5,0c-2.6-3.5,1.7-14.9-4.4-14.9
		c-0.9,4.4,0,10.5-0.9,14.9c-1.7,0-5.2,0.9-7.9,0c-0.9-10.5,0-23.6,0-33.2c6.1,0,16.6-2.6,19.2,3.5
		C411.8,562.4,410.9,569.4,408.3,571.1z M398.7,568.5c1.7,0,2.6,0,3.5-0.9c0-1.7,0-3.5-0.9-5.2c-0.9-0.9-2.6,0-3.5-0.9
		C398.7,564.1,398.7,565.9,398.7,568.5z"/>
	<path fill="#231F20" d="M240.4,555.4c2.6,4.4,2.6,10.5,4.4,16.6c0.9,6.1,3.5,11.4,4.4,16.6c-1.7,0.9-5.2,0-8.7,0
		c-0.9-2.6-1.7-5.2-2.6-7.9c-0.9-0.9-2.6,0-4.4,0c-0.9,2.6-1.7,5.2-0.9,7.9c-3.5,0-7,0-9.6,0c1.7-10.5,4.4-22.7,7.9-33.2
		C233.4,556.3,236.9,555.4,240.4,555.4z M234.3,574.6c0.9,0,1.7,0,1.7,0c-0.9-1.7-0.9-3.5-0.9-5.2
		C235.2,571.1,235.2,572.9,234.3,574.6z"/>
	<path fill="#231F20" d="M555.2,606.1c0,4.4-6.1,2.6-10.5,2.6c-13.1,0-26.2,0-39.3,0c-14,0-28-0.9-42.8,0
		c-27.1,0.9-79.6-0.9-115.4,0c0,1.7,1.7,3.5,0.9,5.2c-1.7,4.4-9.6,0.9-13.1-0.9c-1.7,7-7,0.9-11.4-0.9c-2.6-0.9-6.1-2.6-9.6-1.7
		c-3.5,0.9-6.1,7.9-3.5,11.4c1.7,2.6,7.9,4.4,9.6-0.9c-1.7-0.9-3.5,2.6-6.1,0.9c-3.5-2.6,0-6.1,1.7-6.1c2.6-0.9,7,0.9,7,3.5
		c2.6,8.7-10.5,10.5-14,6.1c-4.4-4.4-0.9-13.1,3.5-16.6c-3.5,0-7.9,0-11.4,0c0.9,3.5,4.4,5.2,4.4,8.7c0.9,7-5.2,11.4-11.4,10.5
		c-4.4-0.9-6.1-7-3.5-10.5c2.6-2.6,10.5-2.6,9.6,2.6c-0.9,4.4-5.2,1.7-7.9,2.6c1.7,4.4,9.6,1.7,9.6-2.6c0.9-3.5-2.6-7.9-5.2-8.7
		c-7-1.7-11.4,8.7-17.5,5.2c-0.9-0.9-1.7-1.7-1.7-3.5c-2.6,3.5-15.7,3.5-10.5-4.4c-64.7,0-132,0-196.7,0c-2.6,0-11.4,0.9-12.2-0.9
		c-0.9-2.6,6.1-1.7,8.7-1.7c26.2-1.7,53.3,0,78.7,0c76.1,0,149.5,0,225.6,0c21,0,47.2,0,58.6,0c10.5,0,30.6,0,49.8,0
		c21.9,0,44.6,0,66.4,0C549.9,605.2,553.4,604.4,555.2,606.1z"/>
	<path fill="#231F20" d="M299.9,555.4c0.9,1.7,0.9,6.1,0,7.9c-1.7,0-5.2,0.9-8.7,0c0,1.7,0,3.5,0,5.2c2.6,0,6.1-0.9,8.7,0
		c0.9,1.7,0.9,5.2,0,7c-2.6,0.9-5.2,0.9-8.7,0.9c-0.9,1.7,0,4.4,0,6.1c2.6,0,6.1,0,8.7,0c0.9,1.7,0.9,5.2,0,7
		c-4.4,0.9-11.4,0-16.6,0.9c-0.9-10.5-0.9-24.5,0-35C288.5,554.5,295.5,554.5,299.9,555.4z"/>
</g>
</svg>
